<svg version="1.2" baseProfile="tiny-ps"
	xmlns="http://www.w3.org/2000/svg" viewBox="0 0 1400 1400" width="1400" height="1400">
	<title>nextcord-svg</title>
	<style>
		tspan { white-space:pre }
		.shp0 { fill: #366d9e }
		.shp1 { fill: #fbd143 }
		.shp2 { fill: #faca3b }
	</style>
	<path id="Layer" class="shp0" d="M545 29C555.69 35.63 555.69 35.63 558 42C558.42 45.74 558.39 49.45 558.37 53.21C558.37 54.34 558.37 55.47 558.37 56.64C558.38 60.44 558.37 64.24 558.35 68.04C558.35 70.77 558.36 73.49 558.36 76.21C558.36 82.08 558.36 87.95 558.35 93.81C558.33 103.09 558.34 112.37 558.35 121.65C558.38 144.7 558.39 167.74 558.37 190.79C558.37 191.62 558.37 192.45 558.37 193.3C558.37 194.13 558.36 194.95 558.36 195.8C558.35 212.04 558.35 228.28 558.38 244.51C558.4 253.73 558.39 262.95 558.37 272.18C558.36 277.92 558.37 283.66 558.38 289.4C558.39 292.06 558.38 294.72 558.37 297.38C558.35 301.01 558.36 304.65 558.38 308.28C558.37 309.33 558.36 310.38 558.34 311.46C558.43 318.62 560.04 323.99 564 330C568.7 334.7 573.39 337.41 579.88 338.88C586.96 339.09 592.47 336.27 598 332C603.25 326.02 604.92 322 605.13 314.08C605.14 312.02 605.14 309.97 605.14 307.92C605.14 306.79 605.14 305.66 605.15 304.5C605.15 300.7 605.16 296.9 605.16 293.1C605.16 290.38 605.17 287.66 605.17 284.94C605.18 279.08 605.19 273.22 605.2 267.36C605.21 258.09 605.23 248.83 605.25 239.56C605.31 213.22 605.37 186.87 605.4 160.53C605.42 145.98 605.45 131.43 605.49 116.88C605.51 109.18 605.53 101.48 605.53 93.78C605.53 86.54 605.55 79.3 605.57 72.06C605.58 69.4 605.58 66.74 605.58 64.08C605.57 60.46 605.59 56.83 605.61 53.2C605.6 52.15 605.6 51.09 605.59 50C605.64 44.6 605.86 40.61 609 36C615.47 30.41 621.19 27.34 629.88 26.56C636.77 26.8 642.64 29.04 647.94 33.44C654.19 41.21 655.3 48.05 655.23 57.91C655.23 59.01 655.23 60.11 655.23 61.25C655.23 64.94 655.21 68.63 655.2 72.32C655.19 74.97 655.19 77.62 655.19 80.26C655.18 85.96 655.17 91.66 655.15 97.36C655.12 106.38 655.11 115.39 655.1 124.4C655.08 145.17 655.03 165.93 654.99 186.69C654.95 205.72 654.91 224.74 654.89 243.76C654.88 252.72 654.86 261.68 654.84 270.64C654.82 276.21 654.81 281.79 654.81 287.36C654.81 289.95 654.8 292.53 654.79 295.12C654.77 298.65 654.77 302.18 654.77 305.71C654.76 307.24 654.76 307.24 654.75 308.8C654.77 315.56 654.97 322.5 658.45 328.49C663.58 334.06 668.5 337.18 676 338.94C684.09 339.06 690.06 335.15 696.19 330.25C701.42 323.76 701.43 316.45 701.37 308.54C701.37 307.4 701.37 306.27 701.37 305.09C701.38 301.3 701.37 297.5 701.35 293.7C701.35 290.97 701.36 288.25 701.36 285.52C701.36 279.65 701.36 273.78 701.35 267.91C701.33 258.64 701.34 249.36 701.35 240.08C701.38 217.04 701.39 194 701.37 170.95C701.37 170.13 701.37 169.3 701.37 168.45C701.37 167.62 701.36 166.79 701.36 165.94C701.35 149.7 701.35 133.46 701.38 117.22C701.4 107.99 701.39 98.77 701.37 89.55C701.36 83.81 701.37 78.07 701.38 72.34C701.39 69.68 701.38 67.02 701.37 64.36C701.35 60.72 701.36 57.09 701.38 53.46C701.37 52.41 701.36 51.36 701.34 50.27C701.42 43.33 702.75 39.53 707 34C709.54 31.94 709.54 31.94 712.06 30.56C712.9 30.09 713.74 29.62 714.6 29.13C720.62 26.3 727.24 26.07 733.63 27.65C739.9 29.89 743.76 32.87 748 38C750.58 43.57 750.28 49.17 750.25 55.18C750.26 56.88 750.26 56.88 750.26 58.61C750.27 62.4 750.26 66.19 750.26 69.98C750.26 72.7 750.26 75.42 750.27 78.13C750.27 83.98 750.28 89.84 750.27 95.69C750.27 104.94 750.29 114.19 750.3 123.45C750.35 149.76 750.37 176.07 750.38 202.38C750.38 216.91 750.4 231.44 750.44 245.97C750.46 255.17 750.46 264.37 750.45 273.57C750.45 279.29 750.46 285.01 750.48 290.73C750.48 293.39 750.48 296.04 750.47 298.69C750.46 302.32 750.48 305.94 750.49 309.56C750.48 311.14 750.48 311.14 750.47 312.75C750.53 319.17 751.68 323.33 755 329C755.33 329.99 755.66 330.98 756 332C757.32 332.66 758.64 333.32 760 334C761.24 334.68 762.48 335.36 763.75 336.06C768.15 338.07 771.18 338.92 776 339C784.16 336.65 790.04 332.94 795 326C796.38 320.74 796.14 315.41 796.14 310.01C796.14 308.89 796.14 307.77 796.15 306.61C796.15 302.85 796.16 299.08 796.16 295.32C796.16 292.62 796.17 289.92 796.17 287.22C796.18 281.41 796.19 275.6 796.2 269.79C796.21 260.6 796.23 251.41 796.25 242.22C796.31 216.09 796.37 189.95 796.4 163.82C796.42 149.39 796.45 134.96 796.49 120.53C796.51 112.9 796.53 105.26 796.53 97.62C796.53 90.44 796.55 83.26 796.57 76.07C796.58 73.44 796.58 70.8 796.58 68.16C796.57 64.57 796.59 60.97 796.61 57.37C796.6 55.8 796.6 55.8 796.59 54.21C796.66 46.92 797.84 41.14 802.06 35C802.7 34.34 803.34 33.68 804 33C804.66 33 805.32 33 806 33C806 32.34 806 31.68 806 31C813 26.93 820.03 26.23 828 27C836.4 29.19 840.83 33.11 846 40C848.66 48.76 849.36 57.96 850.09 67.05C851.09 79 852.65 90.88 854.15 102.78C855.3 111.98 856.35 121.18 857.25 130.41C858.11 139.23 859.11 148.03 860.12 156.83C860.45 159.71 860.77 162.59 861.1 165.46C862.03 173.57 862.96 181.68 863.92 189.79C865.48 202.91 866.76 216.02 867.75 229.19C867.96 231.53 868.22 233.87 868.49 236.21C869.01 241.09 869.31 245.95 869.54 250.84C869.6 252.22 869.6 252.22 869.67 253.63C869.8 256.58 869.93 259.54 870.06 262.5C870.13 264.02 870.13 264.02 870.2 265.57C872.8 326.12 870.49 386.83 832.85 437.37C829.49 441.65 825.93 445.68 822.19 449.63C819.96 451.99 819.96 451.99 817.93 454.61C815.69 457.38 813.11 459.6 810.41 461.91C807.55 464.39 804.78 466.94 802 469.5C798.75 472.49 795.49 475.46 792.13 478.31C776.63 491.88 764.62 507.32 754 525C754 525.33 754 525.66 754 526C756.74 526.44 759.5 526.82 762.25 527.19C810.91 534.16 858.43 550.38 902 573C904.37 574.17 906.75 575.34 909.13 576.5C926.97 585.45 943.58 596.16 959.41 608.27C961.85 610.12 964.32 611.92 966.84 613.66C970 616 970 616 972 619C972.25 622.03 972.25 622.03 972.24 625.81C972.25 627.22 972.25 628.64 972.25 630.11C972.25 631.65 972.24 633.2 972.23 634.8C972.23 637.22 972.23 637.22 972.23 639.69C972.23 643.14 972.22 646.59 972.21 650.04C972.19 654.33 972.19 658.63 972.19 662.92C972.19 680.76 972.02 698.59 971.61 716.42C971.58 717.92 971.55 719.43 971.52 720.98C971.15 735.19 969.95 749.41 966.88 763.31C966.56 764.75 966.56 764.75 966.24 766.21C962.29 783.1 955.63 798.56 946 813C945.34 813 944.68 813 944 813C943.61 814.05 943.61 814.05 943.2 815.12C937.1 829.72 917.4 843.36 904 851C903.34 851 902.68 851 902 851C900.54 848.1 899.19 845.21 897.88 842.25C894.23 834.3 890.24 827.03 885 820C884.35 819.13 883.71 818.26 883.04 817.37C872.05 803.17 858.85 792.29 841.38 787.06C827.11 784.02 812.75 785.56 799 790C798.1 790.28 797.21 790.55 796.28 790.84C778.54 797.09 765.08 810.26 755.21 825.83C750.3 834.45 746.78 843.64 744.38 853.25C743.69 855.6 743.69 855.6 743 858C740.03 858.99 738.09 859.13 734.99 859.13C733.96 859.13 732.92 859.13 731.85 859.14C730.72 859.13 729.59 859.13 728.42 859.13C727.22 859.13 726.03 859.13 724.79 859.13C720.83 859.14 716.87 859.14 712.91 859.13C710.16 859.13 707.41 859.13 704.67 859.14C698.91 859.14 693.15 859.14 687.39 859.13C679.99 859.12 672.6 859.13 665.2 859.13C659.53 859.14 653.86 859.14 648.19 859.13C645.46 859.13 642.73 859.13 640 859.14C636.2 859.14 632.39 859.13 628.58 859.13C627.45 859.13 626.31 859.13 625.15 859.14C624.11 859.13 623.08 859.13 622.01 859.13C621.11 859.13 620.21 859.13 619.28 859.13C617 859 617 859 614 858C612.95 854.93 612.07 851.94 611.25 848.81C606.72 832.82 599.56 817.34 586 807C585.26 806.22 584.51 805.43 583.75 804.63C572.94 794.3 557.73 787.87 543 786C522.7 784.96 505.11 788.04 488.06 800.07C486.02 801.69 484.01 803.34 482 805C481.34 805 480.68 805 480 805C480 805.66 480 806.32 480 807C479.34 807 478.68 807 478 807C478 807.66 478 808.32 478 809C477.34 809 476.68 809 476 809C476 809.66 476 810.32 476 811C475.34 811 474.68 811 474 811C473.34 812.32 472.68 813.64 472 815C470.6 817.15 469.18 819.3 467.75 821.44C458.74 835.46 453.64 849.44 452.31 866.13C451.56 872.33 451.56 872.33 449.23 875.09C446.89 876.7 444.6 877.87 442 879C440.33 879.81 438.66 880.62 437 881.44C435.75 882.05 435.75 882.05 434.46 882.67C426.8 886.8 420.57 893.13 414.29 899.06C413.53 899.7 412.78 900.34 412 901C411.34 901 410.68 901 410 901C409.34 902.32 408.68 903.64 408 905C407.01 906.32 406.02 907.64 405 909C404.34 909 403.68 909 403 909C402.34 910.32 401.68 911.64 401 913C399.47 915.28 397.93 917.55 396.38 919.81C382.97 939.98 371.59 965.41 370 990C373.55 1001.17 382.79 1010.11 390.71 1018.41C393 1021 393 1021 395 1025C396.32 1025.66 397.64 1026.32 399 1027C400.83 1028.86 402.66 1030.73 404.48 1032.6C409.62 1037.51 415.34 1041.72 421 1046C422.1 1046.84 423.21 1047.68 424.35 1048.54C433.79 1055.5 443.77 1061.3 454 1067C455.92 1068.08 455.92 1068.08 457.88 1069.19C474.77 1078.5 492.75 1084.92 511 1091C509.66 1094.83 507.96 1097.57 505.38 1100.69C504.29 1102.01 504.29 1102.01 503.19 1103.35C502.1 1104.66 502.1 1104.66 501 1106C499.79 1107.52 498.58 1109.04 497.38 1110.56C494.8 1113.79 492.19 1116.98 489.56 1120.16C488.94 1120.91 488.33 1121.65 487.69 1122.42C486.47 1123.9 485.24 1125.37 484.01 1126.85C481.26 1130.17 478.67 1133.47 476.2 1137.02C475.47 1138 474.75 1138.99 474 1140C473.34 1140 472.68 1140 472 1140C471.34 1141.32 470.68 1142.64 470 1144C468.56 1145.91 467.08 1147.78 465.56 1149.63C464.39 1151.07 464.39 1151.07 463.19 1152.54C461 1155 461 1155 458 1157C455.51 1157.12 455.51 1157.12 452.49 1156.93C450.79 1156.83 450.79 1156.83 449.05 1156.72C447.82 1156.63 446.58 1156.53 445.31 1156.44C444.03 1156.34 442.76 1156.25 441.44 1156.16C420.86 1154.5 399.9 1151.6 380 1146C379.09 1145.74 378.18 1145.49 377.23 1145.22C352.79 1138.28 329.15 1129.52 307 1117C305.82 1116.37 304.65 1115.74 303.43 1115.09C288.78 1107.09 275.07 1097.21 262.53 1086.21C260.43 1084.38 258.23 1082.67 256 1081C256 1080.34 256 1079.68 256 1079C254.68 1078.34 253.36 1077.68 252 1077C250.66 1075.84 249.36 1074.63 248.11 1073.38C247.4 1072.67 246.69 1071.96 245.96 1071.23C245.23 1070.5 244.5 1069.76 243.75 1069C242.63 1067.89 242.63 1067.89 241.49 1066.77C239.62 1064.89 237.8 1062.95 236 1061C236 1060.34 236 1059.68 236 1059C235.34 1059 234.68 1059 234 1059C231.78 1056.29 229.65 1053.56 227.56 1050.75C226.98 1049.97 226.39 1049.2 225.79 1048.39C224.19 1046.27 222.59 1044.13 221 1042C220.01 1040.68 219.02 1039.36 218 1038C217.61 1034.74 217.61 1034.74 217.6 1030.81C217.6 1029.33 217.59 1027.85 217.58 1026.32C217.6 1024.71 217.61 1023.1 217.63 1021.44C217.63 1020.61 217.63 1019.78 217.64 1018.92C217.79 988.88 220.37 958.81 224 929C224.14 927.82 224.28 926.63 224.42 925.42C231.88 862.87 245.32 801.16 264 741C264.72 738.69 264.72 738.69 265.45 736.33C281.05 686.3 299.21 636.02 323.27 589.38C324.41 587.15 325.5 584.9 326.54 582.62C329.7 575.74 332.84 571.4 339 567C340.03 566.26 341.06 565.52 342.12 564.75C358.82 553 358.82 553 362 553C362 552.34 362 551.68 362 551C363.84 549.81 363.84 549.81 366.5 548.44C371.3 545.91 376.03 543.3 380.75 540.63C383.5 539.08 386.25 537.54 389 536C390.15 535.35 391.3 534.7 392.48 534.03C435.66 510.22 485.04 495.3 534 490C534.95 489.89 535.9 489.77 536.88 489.65C552.99 487.79 552.99 487.79 557.87 490.73C559.81 492.94 559.81 492.94 562 497C559.02 499.98 555.73 500.36 551.69 501.5C511.64 513.2 472.04 528.91 435.29 548.71C432.26 550.33 429.23 551.88 426.14 553.39C420.65 556.12 415.39 559.18 410.13 562.31C409.15 562.89 408.18 563.47 407.18 564.06C400.3 568.17 393.57 572.42 387 577C385.42 578.08 383.84 579.16 382.26 580.25C372.79 586.76 363.63 593.39 355 601C360.58 599.38 365.6 596.77 370.75 594.13C443.57 557.37 520.94 535.21 602 527C599.09 520.88 596.01 515.24 592 509.75C590.76 508.04 590.76 508.04 589.5 506.3C587.79 504.05 586.02 501.85 584.19 499.7C582 497 582 497 582 495C581.01 494.67 580.02 494.34 579 494C577.31 492.11 575.62 490.21 573.98 488.27C568.64 481.84 568.64 481.84 562 477C562 476.34 562 475.68 562 475C560.68 474.34 559.36 473.68 558 473C557.01 472.34 556.02 471.68 555 471C555 470.34 555 469.68 555 469C553.68 468.34 552.36 467.68 551 467C547.75 464.5 547.75 464.5 545 462C545 461.34 545 460.68 545 460C544.01 459.67 543.02 459.34 542 459C542 458.34 542 457.68 542 457C541.01 456.67 540.02 456.34 539 456C536.58 453.38 534.28 450.74 532 448C531.2 447.06 530.39 446.12 529.57 445.15C524.34 438.99 519.51 432.71 515 426C514.5 425.3 514 424.59 513.48 423.87C498.71 402.76 492.05 377.1 488 352C487.85 351.08 487.69 350.17 487.53 349.22C478.95 295.49 486.2 238.47 492.55 184.85C493.23 179.03 493.83 173.2 494.44 167.38C495.89 153.63 497.54 139.9 499.2 126.18C500.57 114.8 501.83 103.41 503 92C503.85 83.81 504.71 75.63 505.62 67.45C505.87 65.21 506.11 62.97 506.35 60.73C506.67 57.73 507.02 54.74 507.38 51.75C507.46 50.88 507.55 50 507.65 49.1C508.56 41.85 511.16 36.92 516.25 31.69C524.78 26.45 535.7 24.67 545 29Z" />
	<path id="Layer" class="shp1" d="M826 489C827.09 489.12 828.17 489.23 829.29 489.35C873.19 494.32 916.31 506.58 956 526C956.78 526.38 957.56 526.76 958.37 527.15C962.94 529.37 967.48 531.66 972 534C973.04 534.54 974.09 535.07 975.16 535.63C984.59 540.58 993.66 546.13 1002.76 551.67C1004.84 552.91 1006.97 554.08 1009.1 555.24C1010.06 555.82 1011.01 556.4 1012 557C1012 557.66 1012 558.32 1012 559C1012.68 559.27 1013.36 559.54 1014.05 559.82C1017.85 561.34 1020.81 563.54 1024.13 565.94C1025.95 567.25 1025.95 567.25 1027.82 568.59C1033.52 572.91 1035.92 577.6 1038.88 583.94C1039.36 584.96 1039.84 585.98 1040.33 587.04C1041.37 589.24 1042.4 591.44 1043.42 593.64C1044.95 596.89 1046.5 600.14 1048.05 603.38C1054.66 617.27 1060.74 631.33 1066.56 645.56C1067.08 646.82 1067.08 646.82 1067.6 648.1C1071.25 657.01 1074.79 665.93 1078 675C1078.64 676.76 1079.29 678.52 1079.94 680.28C1089.1 705.36 1097.67 730.7 1105.21 756.33C1106.03 759.09 1106.86 761.85 1107.7 764.61C1124.71 821.23 1135.64 880.24 1142 939C1142.21 940.91 1142.21 940.91 1142.42 942.86C1144.26 960.13 1145.38 977.41 1146.19 994.75C1146.23 995.66 1146.27 996.56 1146.32 997.5C1146.56 1002.77 1146.76 1008.05 1146.92 1013.32C1146.97 1015.16 1147.04 1016.99 1147.12 1018.83C1147.23 1021.65 1147.31 1024.47 1147.38 1027.29C1147.42 1028.14 1147.47 1028.99 1147.51 1029.86C1147.63 1037.67 1144.65 1041.84 1139.91 1047.79C1139.41 1048.32 1138.9 1048.86 1138.38 1049.4C1136.2 1051.72 1134.05 1054.07 1131.93 1056.44C1130.14 1058.43 1128.32 1060.41 1126.47 1062.35C1124.72 1064.22 1123.04 1066.16 1121.41 1068.13C1118.93 1071.09 1116.21 1073.54 1113.27 1076.04C1110.8 1078.17 1108.44 1080.39 1106.06 1082.63C1081.14 1105.26 1051.17 1122.52 1020 1135C1019.07 1135.37 1018.15 1135.74 1017.19 1136.13C1008.96 1139.26 1000.46 1141.58 992 1144C989.97 1144.62 989.97 1144.62 987.89 1145.25C966.47 1151.6 944.14 1154.81 921.92 1156.74C919.3 1156.97 916.68 1157.25 914.07 1157.53C904.65 1158.16 904.65 1158.16 900.32 1155.11C897.93 1152.54 895.97 1149.9 894 1147C892.68 1145.34 891.34 1143.7 890 1142.06C889.35 1141.24 888.7 1140.41 888.03 1139.56C885.9 1136.87 883.74 1134.22 881.56 1131.56C880.45 1130.21 880.45 1130.21 879.32 1128.82C877.7 1126.85 876.07 1124.89 874.43 1122.93C873.61 1121.94 872.78 1120.95 871.94 1119.94C871.18 1119.04 870.43 1118.14 869.65 1117.21C868 1115 868 1115 868 1113C867.34 1113 866.68 1113 866 1113C864.69 1111.36 863.45 1109.66 862.25 1107.94C859.79 1104.45 857.33 1101.15 854.44 1098C853.23 1096.51 853.23 1096.51 852 1095C852.33 1094.01 852.66 1093.02 853 1092C855.26 1090.98 855.26 1090.98 858.27 1090.05C859.93 1089.53 859.93 1089.53 861.62 1088.99C862.82 1088.62 864.02 1088.26 865.25 1087.88C907.01 1074.45 949.41 1051.91 978.31 1018.13C979.2 1017.09 980.09 1016.06 981 1015C981.66 1015 982.32 1015 983 1015C983.66 1013.68 984.32 1012.36 985 1011C986.34 1009.22 987.72 1007.47 989.13 1005.75C990.21 1004.41 990.21 1004.41 991.32 1003.05C991.87 1002.37 992.43 1001.7 993 1001C986.71 1003.1 980.87 1006.66 975.5 1010.5C970.89 1013.79 966 1016.35 961 1019C959.94 1019.59 958.89 1020.17 957.8 1020.77C882.93 1061.85 792.29 1087.9 706.64 1088.2C705.32 1088.21 703.99 1088.22 702.62 1088.22C646.8 1088.45 646.8 1088.45 621 1085C619.42 1084.79 617.83 1084.58 616.2 1084.37C579.48 1079.42 544.43 1070.8 510 1057C508.51 1056.41 507.02 1055.83 505.48 1055.22C469.92 1040.96 436.4 1020.75 408 995C406.53 993.76 406.53 993.76 405.04 992.5C402.71 990.44 400.76 988.56 399 986C398.57 982.02 398.77 980.64 400 977C400.38 975.82 400.76 974.65 401.16 973.44C407.25 956.11 415.51 938.84 429 926C429.66 926 430.32 926 431 926C431 925.34 431 924.68 431 924C434.82 920.76 438.93 917.9 443 915C443.79 914.43 444.59 913.85 445.4 913.26C450.25 909.96 450.25 909.96 453.56 910.15C457.14 911.4 458.16 914.1 460.08 917.2C474.46 938.17 497.62 954.21 522 961C525.91 961.43 529.76 961.48 533.69 961.44C534.75 961.43 535.81 961.42 536.91 961.41C554.85 961.02 571.22 953.87 584.79 942.12C587.43 939.59 589.73 936.86 592 934C592.66 934 593.32 934 594 934C594.7 932.35 595.36 930.68 596 929C596.89 927.74 597.77 926.48 598.69 925.19C603.32 918.4 608.17 909.63 609.38 901.46C609.87 898.55 610.42 896.5 612 894C616.06 892.36 620.12 892.55 624.45 892.58C625.74 892.55 627.03 892.52 628.36 892.49C632.63 892.4 636.9 892.39 641.18 892.39C644.14 892.36 647.1 892.33 650.07 892.3C656.28 892.25 662.5 892.24 668.72 892.26C676.7 892.27 684.67 892.15 692.64 892C698.76 891.91 704.88 891.89 711.01 891.9C713.95 891.89 716.89 891.86 719.83 891.79C738.59 891.41 738.59 891.41 745 894C749.89 898.87 750.24 905.42 751 912C753.66 919.02 757.87 924.83 762.43 930.75C764 933 764 933 764 935C764.66 935 765.32 935 766 935C766.93 936.13 767.86 937.27 768.81 938.44C778.99 950.34 794.79 957.98 810 961C814.32 961.39 818.6 961.42 822.94 961.38C824.57 961.39 824.57 961.39 826.24 961.41C843.82 961.35 859.38 954.94 873 944C873.89 943.32 874.77 942.64 875.68 941.95C878.18 940.03 878.18 940.03 880 937C880.66 937 881.32 937 882 937C882.66 935.68 883.32 934.36 884 933C885.04 931.53 886.11 930.07 887.19 928.63C896.35 915.62 901.77 901.48 903.31 885.68C904 883 904 883 908 880C910.17 879.01 912.34 878.03 914.53 877.08C925.33 872.37 935.61 866.39 944 858C944.66 858 945.32 858 946 858C946 857.34 946 856.68 946 856C947.92 854.31 949.85 852.63 951.79 850.97C967.45 837.03 977.97 816.41 985 797C985.43 795.87 985.86 794.74 986.3 793.57C989.04 785.95 990.98 778.22 992.69 770.31C992.89 769.39 993.09 768.48 993.3 767.53C997.39 747.58 997.42 727.32 997.58 707.05C997.59 705.6 997.61 704.15 997.62 702.66C997.68 695.02 997.72 687.38 997.76 679.73C997.79 673.43 997.85 667.13 997.94 660.83C998.05 653.18 998.1 645.52 998.12 637.87C998.14 634.96 998.17 632.06 998.22 629.16C998.29 625.1 998.3 621.06 998.28 617.01C998.32 615.82 998.35 614.63 998.39 613.4C998.33 609.94 998.13 607.27 997 604C992.55 598.93 987 595.58 981.31 592.06C980.22 591.38 979.13 590.7 978 590C978 589.34 978 588.68 978 588C976.34 587.33 974.67 586.66 973 586C971.07 584.67 969.18 583.29 967.31 581.88C933.45 557.36 894.98 537.45 856.19 522C854.29 521.24 854.29 521.24 852.36 520.46C840.39 515.68 828.29 511.37 816.06 507.31C815.18 507.02 814.3 506.72 813.4 506.42C808.63 504.83 803.85 503.34 799 502C800.2 497.18 801.78 494.48 805.17 490.88C811.39 486.75 818.9 488.24 826 489Z" />
	<path id="Layer" class="shp2" d="M581 1107C582.34 1107.18 583.67 1107.36 585.05 1107.55C591.36 1108.4 597.68 1109.21 604 1110C605.06 1110.13 606.13 1110.27 607.23 1110.4C663.31 1117.28 719.02 1115.51 775 1109C775.37 1131.93 774.97 1154.73 773.63 1177.63C773.53 1179.29 773.53 1179.29 773.43 1180.98C772.79 1192.02 772.04 1202.96 770.44 1213.91C769.83 1218.2 769.48 1222.49 769.13 1226.81C768.2 1237.3 766.6 1247.64 764.93 1258.03C764.19 1262.65 763.59 1267.28 763.06 1271.94C759.83 1296.85 750.74 1323.24 732.19 1340.81C717.47 1353.3 700.1 1358.04 680.99 1358.19C679.61 1358.19 679.61 1358.19 678.19 1358.19C677.22 1358.19 676.25 1358.19 675.25 1358.19C668.32 1358.13 661.78 1357.52 655 1356C653.6 1355.79 652.19 1355.59 650.75 1355.38C635.96 1351.09 623.95 1342.88 614.5 1330.75C612.15 1327.22 610 1323.74 608 1320C607.53 1319.13 607.05 1318.25 606.56 1317.35C602.76 1310.1 600.18 1302.88 598 1295C597.73 1294.11 597.47 1293.22 597.2 1292.3C593.83 1280.7 592.07 1268.8 590.51 1256.86C590.06 1253.42 589.57 1249.99 589.07 1246.55C582.42 1200.13 580.76 1153.84 581 1107Z" />
</svg>
