<svg id="svg" version="1.1" xmlns="http://www.w3.org/2000/svg" style="display: block;" viewBox="0 0 1400 1400"><path d="M0 0 C462 0 924 0 1400 0 C1400 462 1400 924 1400 1400 C938 1400 476 1400 0 1400 C0 938 0 476 0 0 Z " transform="translate(0,0)" style="fill: #30292F;"/><path d="M0 0 C0.68835938 0.37511719 1.37671875 0.75023437 2.0859375 1.13671875 C6.3803732 3.59400416 8.89358462 5.3793387 11 10 C11.44848065 13.66914772 11.40272586 17.31949265 11.37854004 21.01200867 C11.38307017 22.13628558 11.3876003 23.2605625 11.3922677 24.41890842 C11.40391492 28.19434695 11.39423491 31.96943278 11.38476562 35.74487305 C11.38719082 38.44857087 11.3941751 41.15225207 11.40104675 43.85594177 C11.41361423 49.6830066 11.41558574 55.50999723 11.41069031 61.33707237 C11.40388097 69.77292054 11.41640256 78.20865691 11.43419749 86.64448509 C11.46285175 100.34558607 11.48036078 114.04667498 11.48876953 127.74780273 C11.48927671 128.5677618 11.48978389 129.38772086 11.49030644 130.23252717 C11.49383264 136.0508513 11.49696168 141.86917561 11.5 147.6875 C11.50346753 154.32511411 11.50711722 160.96272805 11.51123047 167.6003418 C11.51198439 168.82650649 11.51198439 168.82650649 11.51275355 170.07744219 C11.52150632 183.72144158 11.54196185 197.36539957 11.57071257 211.0093711 C11.58786907 219.42026293 11.59448791 227.83103745 11.58740652 236.24194447 C11.58321832 242.00979817 11.58960551 247.77757806 11.60420525 253.54541459 C11.61224133 256.87025496 11.61375694 260.19476041 11.60538292 263.5196228 C11.59698716 267.13094647 11.60700897 270.74177891 11.62145996 274.35307312 C11.61456603 275.39443584 11.60767209 276.43579855 11.60056925 277.50871772 C11.66879241 286.28271339 12.85660787 294.88474199 19.13671875 301.4609375 C24.13918102 305.59295036 30.28057094 308.9784795 36.9296875 308.48046875 C44.54218003 306.71379596 50.83533358 302.64095457 55 296 C56.56215351 292.58058173 57.25067479 289.90167006 57.2561264 286.1491518 C57.2623585 285.19439656 57.26859059 284.23964131 57.27501154 283.25595409 C57.27171257 282.21511061 57.26841359 281.17426713 57.26501465 280.10188293 C57.26939592 278.98985667 57.27377719 277.87783041 57.27829123 276.73210639 C57.29063301 272.99820277 57.28880159 269.26443926 57.28710938 265.53051758 C57.29313231 262.85637778 57.29995356 260.18225152 57.30781555 257.50811768 C57.32326893 251.74491506 57.33167991 245.98173692 57.33552551 240.2185154 C57.34127695 231.87498684 57.35987084 223.53152399 57.38196605 215.18802448 C57.41768781 201.63667225 57.44599815 188.0853163 57.46826172 174.53393555 C57.46959671 173.72294833 57.4709317 172.91196111 57.47230715 172.07639851 C57.481732 166.32176598 57.49089387 160.56713304 57.5 154.8125 C57.51039241 148.24763966 57.52091143 141.68277956 57.53173828 135.11791992 C57.53306902 134.30943778 57.53439977 133.50095563 57.53577083 132.66797403 C57.55822417 119.17314049 57.58843214 105.67833487 57.62413073 92.18353003 C57.64576069 83.86479499 57.66040657 75.54610345 57.66596949 67.22734185 C57.6702266 61.52257138 57.68149044 55.8178423 57.69819343 50.11309478 C57.70756955 46.82478788 57.71262671 43.53657329 57.71113014 40.24825096 C57.70996813 36.67642416 57.72101086 33.10483036 57.73498535 29.53303528 C57.73168638 28.50334541 57.7283874 27.47365553 57.72498846 26.41276294 C57.82414955 11.01384691 57.82414955 11.01384691 61.734375 5.59765625 C62.39953125 5.09105469 63.0646875 4.58445312 63.75 4.0625 C64.81734375 3.24072266 64.81734375 3.24072266 65.90625 2.40234375 C73.64443409 -2.78050716 80.79380492 -3.97504037 90 -3 C96.57505684 -1.03482938 100.91159336 2.27309874 104.84375 7.83984375 C108.24082814 14.18641203 108.2852338 19.9946644 108.25828552 27.02510071 C108.26196123 28.13868696 108.26563693 29.25227321 108.26942402 30.3996045 C108.27940771 34.13274186 108.2752524 37.86573037 108.27124023 41.59887695 C108.27562708 44.27478639 108.28081868 46.95068242 108.28707886 49.62658691 C108.29911447 55.39032313 108.3042313 61.15403172 108.30496025 66.91777992 C108.30628718 75.26095955 108.32141038 83.60407224 108.34045542 91.94722822 C108.37128856 105.49695571 108.39545739 119.0466849 108.41333008 132.59643555 C108.41440276 133.40711958 108.41547544 134.21780361 108.41658062 135.05305382 C108.42839765 144.09514148 108.43860358 153.13722983 108.44702148 162.17932129 C108.45009538 165.45703127 108.45318418 168.73474123 108.45629883 172.01245117 C108.45744684 173.22562841 108.45744684 173.22562841 108.45861804 174.46331427 C108.47170919 187.95931389 108.49636199 201.45526506 108.53004223 214.9512288 C108.55030849 223.2708215 108.5606249 231.59031053 108.55805302 239.90992811 C108.55701626 245.61329548 108.56668191 251.31658099 108.58469205 257.01991979 C108.59471495 260.30815169 108.59824433 263.59616619 108.59192467 266.88441277 C108.58578313 270.45444269 108.59801625 274.02396278 108.61473083 277.59394836 C108.60851902 278.62586896 108.6023072 279.65778955 108.59590715 280.72098047 C108.65879809 288.10276414 109.54368292 294.72491056 114.0625 300.75 C119.52995265 304.93783607 125.78349045 308.99534043 132.92578125 308.48828125 C140.78751354 306.63759097 147.20631348 302.28256643 151.6052475 295.53924465 C153.55928218 290.58079733 153.41305133 286.09366062 153.37854004 280.80958557 C153.38533523 279.11258818 153.38533523 279.11258818 153.3922677 277.38130802 C153.40390049 273.5881543 153.3942408 269.79535261 153.38476562 266.00219727 C153.38719163 263.28363235 153.39417608 260.56508394 153.40104675 257.8465271 C153.41360647 251.99109882 153.41558851 246.13574439 153.41069031 240.28030586 C153.4038796 231.80673945 153.41640437 223.33328427 153.43419749 214.85973775 C153.4628412 201.10140231 153.48035862 187.34307888 153.48876953 173.5847168 C153.4895303 172.34996013 153.4895303 172.34996013 153.49030644 171.09025889 C153.49383343 165.24767275 153.49696278 159.40508642 153.5 153.5625 C153.5034688 146.89021792 153.50711797 140.21793601 153.51123047 133.5456543 C153.51173308 132.72379069 153.5122357 131.90192707 153.51275355 131.0551585 C153.52149904 117.34899132 153.54193791 103.64286544 153.57071257 89.93672603 C153.58788773 81.48506918 153.59447955 73.03352921 153.58740652 64.5818572 C153.58322593 58.79067395 153.58958099 52.99956438 153.60420525 47.20839829 C153.61225983 43.86772073 153.6137348 40.5273778 153.60538292 37.18667793 C153.59701965 33.56341005 153.6069716 29.94063609 153.62145996 26.31739807 C153.61111906 24.73743297 153.61111906 24.73743297 153.60056925 23.12554938 C153.66507283 14.8562614 155.45125763 8.77556018 161.16015625 2.578125 C167.57168079 -2.92135677 175.39754457 -3.76522715 183.58984375 -3.515625 C190.37877605 -2.48911977 195.52753975 1.07470336 200.0625 6.125 C202.7158802 10.06227385 203.1244081 13.04366636 203.13028526 17.72780037 C203.13390961 18.68056457 203.13753396 19.63332876 203.14126813 20.6149646 C203.14019988 21.65872093 203.13913163 22.70247725 203.13803101 23.77786255 C203.14085229 24.88903438 203.14367357 26.00020622 203.14658034 27.14504993 C203.15493756 30.88202596 203.15626556 34.61897241 203.15771484 38.35595703 C203.16238228 41.02994491 203.16745916 43.70392878 203.17311096 46.37791443 C203.18463584 52.14385948 203.19288071 57.90980162 203.19923019 63.67575455 C203.2095613 72.79418105 203.23012694 81.91257117 203.25234985 91.03097534 C203.25982964 94.15162075 203.2672434 97.2722663 203.27463722 100.39291191 C203.27648779 101.17282255 203.27833835 101.95273319 203.280245 102.75627748 C203.30117242 111.63438978 203.31999966 120.5125061 203.33789062 129.390625 C203.3403479 130.60795408 203.3403479 130.60795408 203.34285481 131.84987567 C203.36912297 144.9925413 203.38777578 158.13520972 203.40448253 171.27789046 C203.42191948 184.77722647 203.45078278 198.27650754 203.4893719 211.77579963 C203.51273805 220.09832016 203.52676342 228.42075107 203.52869953 236.74330465 C203.53081324 242.45137677 203.54377861 248.15935989 203.56517886 253.86739202 C203.5771742 257.15775388 203.58274211 260.44790441 203.57846642 263.73829079 C203.57456437 267.31246489 203.58905111 270.88611997 203.60800171 274.4602356 C203.60247201 275.49060759 203.59694232 276.52097958 203.59124506 277.58257496 C203.66871281 286.06921943 205.25484828 294.79520541 210 302 C212.87416542 304.00224716 212.87416542 304.00224716 216.25 305.375 C217.34828125 305.87773437 218.4465625 306.38046875 219.578125 306.8984375 C226.00172794 308.96630968 230.80376938 308.18892076 236.71484375 305.33984375 C240.73420374 302.98319336 246.0885798 299.81520754 247.5875603 295.18513548 C248.03304268 292.82493749 248.1272826 290.65856011 248.13028526 288.25658226 C248.13390961 287.30033467 248.13753396 286.34408707 248.14126813 285.35886228 C248.14019988 284.31121501 248.13913163 283.26356774 248.13803101 282.18417358 C248.14085229 281.0689182 248.14367357 279.95366281 248.14658034 278.8046118 C248.15493771 275.05381626 248.15626558 271.30305019 248.15771484 267.55224609 C248.16238226 264.86840613 248.16745914 262.18457016 248.17311096 259.50073242 C248.18463592 253.71350644 248.19288075 247.92628336 248.19923019 242.13904953 C248.20956119 232.98701816 248.23012679 223.83502303 248.25234985 214.68301392 C248.25982965 211.55088627 248.2672434 208.41875848 248.27463722 205.28663063 C248.27648779 204.5038502 248.27833835 203.72106977 248.280245 202.91456871 C248.30117248 194.00375897 248.3199997 185.09294522 248.33789062 176.18212891 C248.33952881 175.36758557 248.34116699 174.55304223 248.34285481 173.71381576 C248.3691231 160.52265117 248.38777583 147.33148379 248.40448253 134.14030413 C248.42191931 120.59124769 248.45078242 107.042246 248.4893719 93.49323332 C248.51273841 85.1400034 248.52676345 76.78686277 248.52869953 68.4335999 C248.53081319 62.70450316 248.54377819 56.97549509 248.56517886 51.24643819 C248.57717454 47.94392496 248.58274197 44.64162229 248.57846642 41.33908463 C248.57456455 37.75177402 248.58905052 34.16498061 248.60800171 30.57772827 C248.59970717 29.02633386 248.59970717 29.02633386 248.59124506 27.44359815 C248.66271084 19.58631169 249.53650774 11.71523492 254.5625 5.375 C257 3 257 3 259 3 C259.33 2.01 259.66 1.02 260 0 C266.61585778 -4.25305143 274.39902243 -3.83570958 282 -3 C288.81370503 -0.96942565 294.95507626 3.11101894 299 9 C302.03347674 17.41777517 302.71802197 26.33559938 303.4375 35.1875 C304.31328353 45.65575813 305.46665071 56.0701445 306.75 66.49609375 C309.2466733 86.79446813 311.54953565 107.11409176 313.83666992 127.43701172 C314.31954098 131.7257462 314.80530828 136.01413697 315.29370117 140.30224609 C317.65732762 161.06193222 320.01352527 181.81773813 321.796875 202.63671875 C321.88640285 203.67278322 321.88640285 203.67278322 321.97773933 204.72977829 C323.20962793 219.1391535 323.78642337 233.54086211 324 248 C324.01643555 249.06214722 324.01643555 249.06214722 324.03320312 250.14575195 C325.06253748 318.95221209 315.23865214 379.04415487 265.90771484 430.06933594 C258.02726814 438.04458198 249.56131318 445.48137613 240.984375 452.6953125 C233.53342011 459.03715579 227.49257359 466.43445446 221.5625 474.1875 C221.00409424 474.91638428 220.44568848 475.64526855 219.87036133 476.39624023 C215.12088833 482.67926149 210.92868141 489.17525133 207 496 C208.63388672 496.19722656 208.63388672 496.19722656 210.30078125 496.3984375 C240.84271355 500.23875933 270.05557891 507.57086888 299 518 C300.72138184 518.6180249 300.72138184 518.6180249 302.47753906 519.24853516 C329.96127921 529.25444514 356.77556156 542.19306534 382 557 C382.68964844 557.40202637 383.37929688 557.80405273 384.08984375 558.21826172 C394.31270722 564.23071615 403.6968347 571.12824047 413.01171875 578.45507812 C415.75344611 580.58543799 418.54173875 582.65105333 421.3359375 584.71191406 C424.93357761 587.49670708 424.93357761 587.49670708 425.25447559 589.92820168 C425.25652846 590.72111296 425.25858133 591.51402424 425.26069641 592.33096313 C425.26778122 593.24141388 425.27486603 594.15186462 425.28216553 595.08990479 C425.27968811 596.09229187 425.27721069 597.09467896 425.2746582 598.12744141 C425.27976913 599.18158234 425.28488007 600.23572327 425.29014587 601.32180786 C425.30411881 604.83178293 425.30307631 608.34156278 425.30078125 611.8515625 C425.30467009 614.30227735 425.30900515 616.75299153 425.31376648 619.20370483 C425.32124958 624.36385264 425.32092677 629.5239321 425.31567383 634.68408203 C425.30994162 641.23067048 425.32664666 647.77697022 425.3500185 654.32351112 C425.36492566 659.40116966 425.36560366 664.47876189 425.36250877 669.55643845 C425.36301569 671.96485328 425.36813227 674.37327247 425.37832069 676.7816658 C425.43748341 692.75444158 424.38756145 708.20440012 422 724 C421.82721999 725.17435797 421.82721999 725.17435797 421.65094948 726.37244034 C419.2738549 742.4015814 413.80656478 757.08140948 406.375 771.4375 C405.91996094 772.31946045 405.46492187 773.2014209 404.99609375 774.11010742 C402.4693191 778.8180562 399.9221981 782.30774651 396 786 C394.52737464 788.29719139 394.52737464 788.29719139 393.3125 790.6875 C386.79143016 801.83110035 376.48942958 808.93212245 366 816 C365.1646875 816.58523438 364.329375 817.17046875 363.46875 817.7734375 C358.61297272 821.05289902 358.61297272 821.05289902 355.90087891 820.81884766 C352.51888081 819.36197357 351.71677861 815.59938862 350.375 812.375 C344.15352984 798.39106979 335.78100346 786.81294717 325 776 C323.92685547 774.89205078 323.92685547 774.89205078 322.83203125 773.76171875 C311.43769615 762.75218296 296.30817037 756.39996405 280.5625 756.5625 C278.9846875 756.57603516 278.9846875 756.57603516 277.375 756.58984375 C257.09821197 757.0333215 239.12047828 763.1771747 224 777 C223.3915625 777.52851562 222.783125 778.05703125 222.15625 778.6015625 C209.41330649 790.35982401 200.89417089 807.9591335 197.5703125 824.8125 C197 827 197 827 195 829 C192.77887821 829.26006222 192.77887821 829.26006222 189.95826721 829.27415466 C188.8912558 829.28412979 187.82424438 829.29410492 186.72489929 829.30438232 C185.54925919 829.305047 184.37361908 829.30571167 183.16235352 829.30639648 C181.92817688 829.31472 180.69400024 829.32304352 179.42242432 829.33161926 C176.03188431 829.35162865 172.64159022 829.36236744 169.25101209 829.36744571 C167.13397919 829.37108503 165.01697007 829.37732281 162.89994621 829.3844471 C155.51784091 829.4089523 148.135806 829.421996 140.75366211 829.42553711 C133.86660292 829.4291743 126.97998887 829.45907947 120.0930658 829.50094169 C114.18473163 829.53559976 108.2765453 829.55108476 102.36811012 829.55178314 C98.83720134 829.55257745 95.30674584 829.56138524 91.77594185 829.58978081 C87.83946503 829.62073029 83.9036316 829.61192329 79.96704102 829.59936523 C78.79342514 829.61419952 77.61980927 829.62903381 76.41062927 829.64431763 C75.34079803 829.63455399 74.2709668 829.62479034 73.16871643 829.61473083 C71.77194845 829.61774783 71.77194845 829.61774783 70.34696293 829.62082577 C68 829 68 829 66.23237514 826.64614964 C64.86339507 823.7066826 64.07782635 820.90090456 63.3125 817.75 C59.74788833 804.84691896 54.20095821 792.8517136 45 783 C44.37480469 782.30777344 43.74960937 781.61554687 43.10546875 780.90234375 C28.61420037 765.58468939 10.12365174 757.23683529 -10.81835938 756.52709961 C-29.92065459 756.3340593 -47.561881 760.95345287 -62.23046875 773.71484375 C-64 775 -64 775 -67 775 C-67 775.66 -67 776.32 -67 777 C-67.66 777 -68.32 777 -69 777 C-69 777.66 -69 778.32 -69 779 C-69.66 779 -70.32 779 -71 779 C-71 779.66 -71 780.32 -71 781 C-71.98349825 782.01623383 -72.98643478 783.01375178 -74 784 C-85.2770512 799.99279083 -92.41595996 816.90469659 -94.33984375 836.453125 C-95.00186969 843.09152211 -95.00186969 843.09152211 -97.95703125 845.78125 C-100.5715728 847.3952662 -103.21076641 848.71266142 -106 850 C-115.65139337 854.88116447 -123.93044629 860.72485347 -131.5 868.5 C-134 871 -134 871 -137 872 C-138.36363208 873.97946592 -139.69418644 875.9819245 -141 878 C-141.59425781 878.56460938 -142.18851563 879.12921875 -142.80078125 879.7109375 C-145.76296657 882.79413572 -147.9521547 886.21856849 -150.25 889.8125 C-150.73235107 890.56515137 -151.21470215 891.31780273 -151.71166992 892.09326172 C-162.04929027 908.42015191 -169.55722409 925.13956189 -174 944 C-174.226875 944.96292969 -174.45375 945.92585937 -174.6875 946.91796875 C-176.7671768 956.46426295 -176.24940005 962.62537573 -171 971 C-166.39055605 977.29197862 -161.23177874 982.88844721 -155.6328125 988.30078125 C-154 990 -154 990 -152.5 992.5625 C-150.06948786 996.51208223 -146.55416519 999.06781371 -143 1002 C-141.88515578 1002.94891233 -140.77059466 1003.89815732 -139.65625 1004.84765625 C-108.86450479 1030.77987786 -73.64013768 1047.57867138 -36 1061 C-41.00992033 1071.59334973 -41.00992033 1071.59334973 -44.8125 1075.5 C-49.15028772 1080.13666695 -53.06468239 1085.02020596 -57 1090 C-59.08027404 1092.60661683 -61.16527533 1095.20944215 -63.25 1097.8125 C-64.25528617 1099.06894814 -65.26049768 1100.32545602 -66.265625 1101.58203125 C-66.73419922 1102.16678223 -67.20277344 1102.7515332 -67.68554688 1103.35400391 C-68.85450114 1104.81780213 -70.01388156 1106.28923428 -71.171875 1107.76171875 C-72.70568254 1109.63964978 -74.29011949 1111.29011949 -76 1113 C-78.0202904 1115.4849157 -79.99080234 1118.00559143 -81.96484375 1120.52734375 C-82.63644531 1121.34332031 -83.30804688 1122.15929688 -84 1123 C-84.77537109 1124.14662109 -84.77537109 1124.14662109 -85.56640625 1125.31640625 C-89.6725693 1128.15710653 -94.16648604 1127.31191721 -99 1127 C-99.85271484 1126.9489209 -100.70542969 1126.8978418 -101.58398438 1126.84521484 C-104.14407406 1126.66328208 -106.69541474 1126.43475616 -109.25 1126.1875 C-110.66055664 1126.05275269 -110.66055664 1126.05275269 -112.09960938 1125.9152832 C-171.03212367 1120.11087967 -232.17318521 1100.945472 -278 1062 C-279.12715057 1061.05674937 -280.25479037 1060.11408317 -281.3828125 1059.171875 C-290.6892703 1051.3683076 -290.6892703 1051.3683076 -294 1048 C-295.20163249 1046.95061054 -296.41055126 1045.9095304 -297.625 1044.875 C-300.82793965 1042.07689287 -303.94466889 1039.20894843 -307 1036.25 C-307.763125 1035.51265625 -308.52625 1034.7753125 -309.3125 1034.015625 C-311 1032 -311 1032 -311 1029 C-311.58954971 1028.73792755 -312.17909943 1028.4758551 -312.78651428 1028.20584106 C-319.838013 1024.36439467 -325.50818139 1016.03798946 -329 1009 C-331.15953371 1001.21124166 -330.47601572 993.10933229 -330.0625 985.125 C-329.99850987 982.90158872 -329.93965836 980.67802407 -329.88574219 978.4543457 C-329.70085476 971.96232017 -329.37434348 965.48355504 -329 959 C-328.95067322 958.10839172 -328.90134644 957.21678345 -328.8505249 956.29815674 C-328.26470923 945.88664886 -327.34188226 935.52957192 -326.22784424 925.16247559 C-325.9161728 922.20439386 -325.62993117 919.24403271 -325.3427124 916.28349304 C-320.65109822 868.10787704 -312.50413243 820.49503506 -300.63378906 773.55322266 C-299.98537783 770.94109451 -299.37400761 768.32273649 -298.7734375 765.69921875 C-295.96565948 753.4528649 -292.63312745 741.41729074 -289.01416016 729.38671875 C-287.94738264 725.8242879 -286.90100629 722.25621843 -285.85546875 718.6875 C-269.07306562 661.71827893 -248.56184132 605.69512473 -221 553 C-220.61489258 552.22785156 -220.22978516 551.45570313 -219.83300781 550.66015625 C-215.00913879 541.34997129 -207.94786675 535.91168505 -199.375 530.125 C-198.54226563 529.54492188 -197.70953125 528.96484375 -196.8515625 528.3671875 C-196.04203125 527.81546875 -195.2325 527.26375 -194.3984375 526.6953125 C-193.67317871 526.20047363 -192.94791992 525.70563477 -192.20068359 525.19580078 C-190 524 -190 524 -187.35009766 523.58154297 C-186.57456543 523.38963379 -185.7990332 523.19772461 -185 523 C-183.88347192 521.08273277 -183.88347192 521.08273277 -183 519 C-181.31445312 517.78662109 -181.31445312 517.78662109 -179.28125 516.7734375 C-178.14478027 516.19348022 -178.14478027 516.19348022 -176.98535156 515.60180664 C-175.75510254 514.99453735 -175.75510254 514.99453735 -174.5 514.375 C-172.75415649 513.48774374 -171.00938775 512.59836995 -169.265625 511.70703125 C-168.38068359 511.25666504 -167.49574219 510.80629883 -166.58398438 510.34228516 C-163.47938449 508.72955933 -160.4390388 507.02051189 -157.40039062 505.28759766 C-116.69505163 482.09738523 -72.14072506 468.23690905 -26 461 C-24.88069092 460.81993408 -24.88069092 460.81993408 -23.73876953 460.63623047 C-15.77729609 459.38132122 -7.86332613 458.75586715 0.1875 458.5625 C0.99026367 458.52801758 1.79302734 458.49353516 2.62011719 458.45800781 C6.89475629 458.42712432 8.50570113 458.61296075 11.98828125 461.33984375 C14 464 14 464 15 467 C11.64259087 469.91923432 8.09653251 471.1174335 3.90234375 472.34765625 C2.46033075 472.78690625 1.01835646 473.22628336 -0.42358398 473.66577148 C-1.17968964 473.89303925 -1.93579529 474.12030701 -2.71481323 474.35446167 C-69.36729657 494.45616929 -134.58488604 525.19195263 -189 569 C-181.40847186 566.16410945 -174.19106309 562.69560173 -166.94418335 559.08853149 C-116.02552304 533.85339467 -55.11014541 509.47119436 1.9675293 504.23999023 C4.31959501 504.00124036 4.31959501 504.00124036 7.83203125 503.09765625 C14.44050407 501.59231399 21.15701132 500.84886728 27.875 500 C36.63313383 498.88675161 45.33377548 497.69757771 54 496 C49.65449432 487.90376457 45.08575326 480.37681764 39.23876953 473.26489258 C36.09171709 469.38427454 36.09171709 469.38427454 35.46484375 466.7578125 C35.31144531 466.17773438 35.15804688 465.59765625 35 465 C33.67335058 464.32012977 32.33834543 463.65654682 31 463 C29.1171553 461.07506488 27.32837485 459.15077665 25.5625 457.125 C22.25357678 453.35255217 18.99258202 450.07942052 15 447 C13.9890187 446.01110324 12.98744041 445.01240379 12 444 C10.92643483 443.05132978 9.84260784 442.11417441 8.75 441.1875 C8.14542969 440.67058594 7.54085938 440.15367187 6.91796875 439.62109375 C5.61592584 438.52058905 4.30568865 437.42972097 2.98828125 436.34765625 C2.35277344 435.82042969 1.71726562 435.29320312 1.0625 434.75 C0.47597656 434.27046875 -0.11054687 433.7909375 -0.71484375 433.296875 C-2 432 -2 432 -2 430 C-2.99 429.67 -3.98 429.34 -5 429 C-5 428.34 -5 427.68 -5 427 C-5.556875 426.77570313 -6.11375 426.55140625 -6.6875 426.3203125 C-30.33518222 412.8187642 -46.40586878 375.1380153 -53.36816406 350.3203125 C-57.68873923 334.45371807 -59.87159689 318.28745227 -62 302 C-62.26586914 300.20719604 -62.26586914 300.20719604 -62.53710938 298.37817383 C-63.22180452 292.82656044 -63.20078058 287.26255824 -63.23828125 281.67578125 C-63.24802979 280.47756241 -63.25777832 279.27934357 -63.26782227 278.04481506 C-63.29297916 274.13403467 -63.30629311 270.22334609 -63.3125 266.3125 C-63.31379787 265.64331795 -63.31509575 264.97413589 -63.31643295 264.2846756 C-63.35355532 239.00769894 -61.91967486 214.11222034 -59 189 C-58.79463492 187.20753376 -58.58939472 185.4150532 -58.38427734 183.62255859 C-57.46868103 175.66847595 -56.52230467 167.71857964 -55.54289246 159.77210999 C-54.01072628 147.32905228 -52.68241167 134.86904553 -51.43164062 122.39477539 C-50.61116457 114.29747925 -49.65421587 106.23102742 -48.57421875 98.1640625 C-46.77183568 84.65751424 -45.3557177 71.11385524 -43.9375 57.5625 C-42.97224982 48.37348836 -42.00170893 39.18511852 -41 30 C-40.90372314 29.11716339 -40.80744629 28.23432678 -40.70825195 27.32473755 C-40.45847153 25.07218101 -40.1988415 22.82109289 -39.93359375 20.5703125 C-39.79622803 19.38840332 -39.6588623 18.20649414 -39.51733398 16.98876953 C-38.76429856 12.63829306 -37.38246842 9.71384783 -35 6 C-34.46375 5.0925 -33.9275 4.185 -33.375 3.25 C-24.8135981 -4.8608018 -10.03338152 -5.81936128 0 0 Z " transform="translate(547,30)" style="fill: #356C9D;"/><path d="M0 0 C0.85400391 0.26651367 1.70800781 0.53302734 2.58789062 0.80761719 C32.14917474 10.12738127 61.28957108 22.9192288 87.96728516 38.79150391 C90.39101427 40.23246705 92.82687696 41.65211801 95.26171875 43.07421875 C97.09188662 44.15238936 98.92132125 45.23180563 100.75 46.3125 C101.60924072 46.81668457 102.46848145 47.32086914 103.35375977 47.84033203 C107.40194846 50.26026455 110.74596071 52.54920484 114 56 C115.99754651 57.19693354 115.99754651 57.19693354 118.125 58.1875 C129.75520305 64.54687211 135.51256408 73.31523109 141 85 C141.45181641 85.94214355 141.90363281 86.88428711 142.36914062 87.85498047 C157.71030289 119.86935218 171.21844138 152.51638278 183 186 C183.32160095 186.91366333 183.6432019 187.82732666 183.97454834 188.76867676 C211.39526258 266.82989305 231.63515843 345.98363164 240.59521484 428.37744141 C240.95250263 431.57493008 241.34337255 434.76672423 241.74200439 437.95925903 C244.85003605 463.20254946 246.2323913 488.86531864 246.52972412 514.28997803 C246.55133993 515.95359018 246.58273808 517.61710794 246.62457275 519.28033447 C246.84171083 528.63681658 246.71200296 535.81159453 240 543 C239.45206787 543.63381592 238.90413574 544.26763184 238.33959961 544.9206543 C236.66771801 546.80887694 234.94244066 548.62644982 233.1875 550.4375 C231.949785 551.73758111 230.71280612 553.03836343 229.4765625 554.33984375 C228.88133789 554.96358887 228.28611328 555.58733398 227.67285156 556.22998047 C225.42195287 558.61162313 223.23905703 561.0504384 221.0625 563.5 C215.10444665 570.15059461 208.83119679 576.25128516 202 582 C201.44666992 582.46712402 200.89333984 582.93424805 200.32324219 583.41552734 C172.65045869 606.6696624 140.29633064 624.55556805 106 636 C105.24090332 636.25974609 104.48180664 636.51949219 103.69970703 636.78710938 C91.76323351 640.85550557 79.69834815 643.82768674 67.3737793 646.46875 C65.2448811 646.9451958 63.14592744 647.48255049 61.0390625 648.046875 C56.10971999 649.2992045 51.10379289 649.88074594 46.0625 650.5 C45.05195557 650.62673096 44.04141113 650.75346191 43.00024414 650.8840332 C40.95778259 651.13915913 38.91505963 651.39220175 36.87207031 651.64306641 C34.31630506 651.96069041 31.76352337 652.29467007 29.2109375 652.63671875 C6.31025819 655.65239335 6.31025819 655.65239335 0.63671875 652.8203125 C-4.05096832 649.01554901 -7.37413191 643.93666093 -10.8046875 639.01953125 C-13.20270371 635.72119223 -15.77489327 632.64709262 -18.4375 629.5625 C-33 612.61183121 -33 612.61183121 -33 609 C-33.55429687 608.8040625 -34.10859375 608.608125 -34.6796875 608.40625 C-37.96028943 606.4180064 -39.8973867 603.54726924 -42.125 600.5 C-45.3572067 596.07830918 -45.3572067 596.07830918 -49 592 C-48.8125 590 -48.8125 590 -48 588 C-45.00872456 586.00581638 -42.80066458 585.23867282 -39.375 584.25 C3.23934993 571.3950635 47.5420569 549.40435351 76.59375 514.65625 C78 513 78 513 80.5 510.5625 C84.00608286 506.96876507 86.97534121 503.00091753 90 499 C86.74344882 499.64244887 84.37760304 500.82026928 81.5625 502.5625 C80.29950073 503.34125488 80.29950073 503.34125488 79.01098633 504.13574219 C77.03399244 505.35980165 75.06156448 506.59127272 73.09423828 507.83081055 C65.34612276 512.67813262 57.44986055 517.07795446 49.3125 521.25 C48.69193726 521.56915375 48.07137451 521.8883075 47.43200684 522.21713257 C11.54076212 540.65019082 -25.95561738 556.35040839 -65.14013672 566.26708984 C-68.20670787 567.05297396 -71.26097848 567.87893328 -74.31640625 568.70703125 C-92.72051045 573.60354832 -111.27041237 576.85751337 -130.08337402 579.70367432 C-131.79007896 579.96754453 -133.49348356 580.25256436 -135.19628906 580.54052734 C-161.83557593 584.82496407 -189.09838968 584.48081773 -216 584.5 C-216.94913647 584.50147285 -217.89827293 584.50294571 -218.87617111 584.5044632 C-246.92803344 584.53985586 -274.3267028 583.99980526 -301.92108154 578.41461182 C-303.98851206 578.00229111 -306.05908512 577.6163328 -308.13330078 577.23974609 C-316.48001665 575.72371136 -324.7519749 573.9843471 -333 572 C-334.07733398 571.74138184 -335.15466797 571.48276367 -336.26464844 571.21630859 C-368.53176118 563.31149449 -399.65352063 551.5825259 -429 536 C-430.07556152 535.43031494 -430.07556152 535.43031494 -431.17285156 534.84912109 C-441.86325775 529.14558036 -452.07788687 522.95338409 -462 516 C-462.98613281 515.31035156 -463.97226562 514.62070312 -464.98828125 513.91015625 C-474.20594913 507.32610776 -482.82584904 500.03401707 -491.4375 492.6875 C-492.02893799 492.18379883 -492.62037598 491.68009766 -493.22973633 491.16113281 C-501.8762691 483.74238539 -501.8762691 483.74238539 -502.625 479.25 C-501.68724585 460.15107375 -486.69226418 436.04232886 -473.41015625 423.07421875 C-472 422 -472 422 -470 422 C-469.80148437 421.44570313 -469.60296875 420.89140625 -469.3984375 420.3203125 C-467.43518233 417.06284443 -464.63090268 415.10625375 -461.625 412.875 C-461.0475 412.43285156 -460.47 411.99070312 -459.875 411.53515625 C-452.50893513 405.96856385 -452.50893513 405.96856385 -448 406.0625 C-442.76872719 407.69727275 -440.40028988 412.82979522 -437.375 417.1875 C-425.80654289 433.04371552 -409.94165603 444.35511423 -392 452 C-391.1862793 452.3604541 -390.37255859 452.7209082 -389.53417969 453.09228516 C-382.19897344 456.08893656 -375.6257277 456.63006199 -367.75 456.5 C-366.55850342 456.48573975 -365.36700684 456.47147949 -364.1394043 456.45678711 C-345.01721343 455.99916871 -328.82602824 449.37440495 -315.046875 435.98828125 C-313.30724665 434.29845142 -311.56828295 432.87572179 -309.625 431.4375 C-306.80456941 428.81852874 -305.6167125 426.68211568 -304.0625 423.23046875 C-302.87420873 420.73593083 -301.46908853 418.46452348 -300 416.125 C-295.58183022 408.8467052 -292.91520295 401.22593096 -290.7109375 393.03125 C-290 391 -290 391 -288 389 C-282.23328531 387.51584467 -276.20352261 387.8523048 -270.29077148 387.85473633 C-268.53123138 387.84969841 -268.53123138 387.84969841 -266.73614502 387.84455872 C-262.86445045 387.83507101 -258.99279921 387.83310693 -255.12109375 387.83203125 C-253.78453108 387.83060726 -252.44796859 387.82901125 -251.11140633 387.82724571 C-244.11601456 387.81800792 -237.1206418 387.81390915 -230.12524414 387.81469727 C-223.61093294 387.81529871 -217.09670437 387.80472988 -210.58241409 387.7889536 C-204.98140812 387.77587376 -199.38042916 387.7705135 -193.77940804 387.77115268 C-190.43754815 387.77140739 -187.0958205 387.7676488 -183.75396538 387.75797462 C-180.02918459 387.74819852 -176.30461808 387.75104312 -172.57983398 387.75708008 C-171.47579727 387.75146057 -170.37176056 387.74584106 -169.23426819 387.74005127 C-167.70979568 387.746343 -167.70979568 387.746343 -166.15452576 387.75276184 C-165.27463202 387.75221707 -164.39473829 387.75167231 -163.48818111 387.75111103 C-159.4061205 388.15943334 -156.72939687 389.28614978 -153.80078125 392.15234375 C-151.67352249 395.51627355 -150.93002073 398.71894438 -150.1875 402.5625 C-148.245246 411.37244277 -144.61513418 418.69111648 -138.78125 425.64453125 C-137 428 -137 428 -137 431 C-136.42121094 431.24492188 -135.84242188 431.48984375 -135.24609375 431.7421875 C-132.62868499 433.20793641 -131.07688252 434.90569949 -129.0625 437.125 C-123.67352553 442.58407495 -117.81239071 446.51839751 -111 450 C-110.41347656 450.30631348 -109.82695313 450.61262695 -109.22265625 450.92822266 C-92.49042726 459.25385595 -70.68392702 458.35372499 -53.1015625 453.140625 C-41.98919045 449.14437764 -33.00658142 443.59257888 -24 436 C-23.14792969 435.35804688 -22.29585937 434.71609375 -21.41796875 434.0546875 C-9.65002648 424.05478825 -0.73985627 401.59347544 0.875 386.625 C0.95492188 385.48289062 1.03484375 384.34078125 1.1171875 383.1640625 C2.27795592 379.0037863 4.45461009 377.19563685 8 375 C10.63098472 373.60845574 13.32873975 372.4238741 16.0625 371.25 C24.77731475 367.33378309 33.49075827 362.71236073 40.16796875 355.734375 C42 354 42 354 45 354 C45.30357422 353.19949219 45.30357422 353.19949219 45.61328125 352.3828125 C47.59664457 348.97477975 50.34635982 346.57901184 53.1875 343.875 C58.53846526 338.62997275 63.10119447 333.43713794 67 327 C67.50926025 326.17604736 67.50926025 326.17604736 68.02880859 325.33544922 C81.17165373 303.88637229 89.6129254 279.18804289 93.375 254.375 C93.60848145 252.84153931 93.60848145 252.84153931 93.84667969 251.27709961 C97.4063816 225.18008586 96.351196 198.36497249 96.44481659 172.09090614 C96.47254785 164.43403015 96.52386301 156.77806236 96.60529089 149.12156451 C96.66782139 143.0330516 96.69202987 136.94490224 96.70307922 130.85609055 C96.71347351 128.28283428 96.73588227 125.70959674 96.77067566 123.13655472 C96.81674407 119.55203698 96.81890035 115.97000072 96.81054688 112.38525391 C96.83414276 111.3306749 96.85773865 110.27609589 96.88204956 109.18955994 C96.82215209 103.88291132 96.4331738 100.79910484 92.63806152 96.92025757 C89.68283036 94.37794642 86.55057326 92.22551157 83.1875 90.25 C79.82731016 88.26632931 78.19189966 87.2878495 76 84 C74.27658774 82.95619017 74.27658774 82.95619017 72.29296875 82.12109375 C68.22168262 80.18574446 64.86064826 77.81742033 61.3125 75.0625 C15.15699003 40.43123542 -43.13434658 15.37979604 -98.38671875 0.03515625 C-99.24910156 -0.30644531 -100.11148437 -0.64804687 -101 -1 C-102 -4 -102 -4 -100.3125 -7.4375 C-86.39784529 -30.13278164 -20.7975276 -6.51265301 0 0 Z " transform="translate(901,504)" style="fill: #F9C93A;"/><path d="M0 0 C0.33 0.66 0.66 1.32 1 2 C3.33010909 2.67784992 5.66359824 3.34416793 8 4 C8.66 4.66 9.32 5.32 10 6 C10.66 6.33 11.32 6.66 12 7 C12 7.66 12 8.32 12 9 C12.7425 9.0825 13.485 9.165 14.25 9.25 C17.59409094 10.1620248 18.68306426 11.46585153 21 14 C21.886875 14.70125 22.77375 15.4025 23.6875 16.125 C26 18 26 18 27 20 C29.01669827 21.13350534 29.01669827 21.13350534 31 22 C31 22.66 31 23.32 31 24 C32.32 24.66 33.64 25.32 35 26 C35 26.99 35 27.98 35 29 C35.66 29 36.32 29 37 29 C38.73908055 30.96790693 40.37908756 32.93968359 42 35 C42.70125 35.845625 43.4025 36.69125 44.125 37.5625 C45.96229492 39.95098339 47.4618832 42.4131672 49 45 C49.66 45.66 50.32 46.32 51 47 C51.144375 47.680625 51.28875 48.36125 51.4375 49.0625 C51.623125 49.701875 51.80875 50.34125 52 51 C52.99 51.33 53.98 51.66 55 52 C55.12375 52.804375 55.2475 53.60875 55.375 54.4375 C55.58125 55.283125 55.7875 56.12875 56 57 C56.99 57.495 56.99 57.495 58 58 C61.17542509 63.82161266 63.19815845 69.64055925 65 76 C65.8252016 78.30044408 66.65402162 80.59817143 67.51171875 82.88671875 C68.066677 85.28857804 67.77761006 86.68804525 67 89 C67.66 89 68.32 89 69 89 C68.979375 89.9075 68.95875 90.815 68.9375 91.75 C68.99078502 94.520821 69.30509221 96.37479281 70 99 C70.37439286 101.66754911 70.70760678 104.32332462 71 107 C71.13027588 108.1597937 71.13027588 108.1597937 71.26318359 109.34301758 C72.0387271 116.94639954 72.14980031 124.48650493 72.125 132.125 C72.12886719 133.35476563 72.13273437 134.58453125 72.13671875 135.8515625 C72.13542969 137.016875 72.13414063 138.1821875 72.1328125 139.3828125 C72.13168457 140.43871582 72.13055664 141.49461914 72.12939453 142.58251953 C72 145 72 145 71 146 C70.95179722 147.91606044 70.9633241 149.83368427 71 151.75 C71.06021283 158.54652272 70.62001566 165.23518624 70 172 C71.65 172 73.3 172 75 172 C75.18175781 171.45472656 75.36351563 170.90945313 75.55078125 170.34765625 C75.80214844 169.59355469 76.05351563 168.83945312 76.3125 168.0625 C76.58449219 167.24523437 76.85648437 166.42796875 77.13671875 165.5859375 C77.69868096 163.90259367 78.2636319 162.22024368 78.83203125 160.5390625 C79.09371094 159.76304687 79.35539062 158.98703125 79.625 158.1875 C79.86476563 157.47980469 80.10453125 156.77210938 80.3515625 156.04296875 C80.98625531 154.04330405 81.51397639 152.04038214 82 150 C82.66 150 83.32 150 84 150 C84.37125 148.4840625 84.37125 148.4840625 84.75 146.9375 C85.54443349 144.09941514 86.60734547 141.77404246 88.125 139.25 C90.24986123 136.19225433 90.24986123 136.19225433 90 133 C90.66 133 91.32 133 92 133 C92.33 131.35 92.66 129.7 93 128 C93.66 128 94.32 128 95 128 C95.66 125.69 96.32 123.38 97 121 C97.66 121 98.32 121 99 121 C99.185625 119.824375 99.185625 119.824375 99.375 118.625 C100 116 100 116 102 114 C102.28875 113.38125 102.5775 112.7625 102.875 112.125 C104 110 104 110 105.9375 108.125 C108.16267769 106.05219517 108.16267769 106.05219517 109.4375 103.0625 C111.1880697 99.6313834 113.22073716 97.64691699 116 95 C116.825 94.01 117.65 93.02 118.5 92 C120.86759967 89.1588804 123.38726974 86.61273026 126 84 C127.34736973 82.34466005 128.68334336 80.67987227 130 79 C130.66 78.34 131.32 77.68 132 77 C132.33 76.34 132.66 75.68 133 75 C133.66 75 134.32 75 135 75 C135.38865234 74.12601563 135.38865234 74.12601563 135.78515625 73.234375 C137.08886248 70.83656162 138.51745533 69.18243206 140.4375 67.25 C141.03433594 66.63640625 141.63117188 66.0228125 142.24609375 65.390625 C144 64 144 64 147 64 C147 63.34 147 62.68 147 62 C149.7927142 58.89698423 152.23886217 56.75519765 156 55 C156.474375 54.525625 156.94875 54.05125 157.4375 53.5625 C159.40109774 51.59890226 161.61509744 50.406481 164 49 C164.99 48.01 164.99 48.01 166 47 C166.680625 46.835 167.36125 46.67 168.0625 46.5 C169.0215625 46.2525 169.0215625 46.2525 170 46 C170.33 45.34 170.66 44.68 171 44 C176.42307692 41 176.42307692 41 179 41 C179.33 40.34 179.66 39.68 180 39 C182 38.0625 182 38.0625 185 37 C185.74636719 36.72671875 186.49273437 36.4534375 187.26171875 36.171875 C188.06222656 35.88828125 188.86273438 35.6046875 189.6875 35.3125 C190.45449219 35.04050781 191.22148437 34.76851562 192.01171875 34.48828125 C194 34 194 34 196 35 C196 34.34 196 33.68 196 33 C196.7425 33.020625 197.485 33.04125 198.25 33.0625 C200.8690289 33.10518501 200.8690289 33.10518501 202.82421875 32.5390625 C210.4863911 30.64071459 217.87687597 30.78492952 225.52734375 32.52734375 C227.99928649 33.0819868 227.99928649 33.0819868 230.55859375 32.98828125 C233.06766113 33.00032477 234.77490129 33.41004077 237.125 34.25 C237.89328125 34.52328125 238.6615625 34.7965625 239.453125 35.078125 C240.29359375 35.38234375 241.1340625 35.6865625 242 36 C242.96421875 36.32484375 243.9284375 36.6496875 244.921875 36.984375 C245.89640625 37.31953125 246.8709375 37.6546875 247.875 38 C248.77992188 38.309375 249.68484375 38.61875 250.6171875 38.9375 C253.02674939 40.0119276 254.37689631 40.93618604 256 43 C256 43.66 256 44.32 256 45 C256.66 45.33 257.32 45.66 258 46 C261 50.5 261 50.5 261 53 C261.66 53.33 262.32 53.66 263 54 C263.33333333 55.33333333 263.66666667 56.66666667 264 58 C264.66 58.33 265.32 58.66 266 59 C266 59.99 266 60.98 266 62 C266.66 62 267.32 62 268 62 C268.391875 62.94875 268.78375 63.8975 269.1875 64.875 C270.5131112 67.99334254 272.00699922 70.99024405 273.5625 74 C275.09028405 76.99610345 276.34495177 79.80598422 277.1875 83.0625 C277.5896875 84.5165625 277.5896875 84.5165625 278 86 C278.66 86.33 279.32 86.66 280 87 C280.33333333 88.66666667 280.66666667 90.33333333 281 92 C281.66 92.33 282.32 92.66 283 93 C283.268125 93.61875 283.53625 94.2375 283.8125 94.875 C285.35221721 97.63028342 287.3112026 98.44332782 290 100 C290 100.66 290 101.32 290 102 C291.65 102.33 293.3 102.66 295 103 C295 103.66 295 104.32 295 105 C297.31 105.66 299.62 106.32 302 107 C302 107.66 302 108.32 302 109 C302.66 109 303.32 109 304 109 C303.979375 109.845625 303.95875 110.69125 303.9375 111.5625 C303.92437445 114.97848943 303.92437445 114.97848943 304.48828125 118.234375 C305.98943369 129.28102352 305.30758557 139.38565722 302 150 C301.73703125 150.93070313 301.4740625 151.86140625 301.203125 152.8203125 C298.98468982 160.58483563 298.98468982 160.58483563 297 164 C296.34 164.33 295.68 164.66 295 165 C294.71125 166.11375 294.4225 167.2275 294.125 168.375 C292.91897938 172.26106645 292.26259784 172.89509817 289 175 C288.67 175.99 288.34 176.98 288 178 C286.609375 179.3671875 286.609375 179.3671875 284.75 180.875 C277.65858713 186.87443807 271.28260498 193.65749844 264.765625 200.265625 C261.45734932 203.51534713 257.71854135 206.24108222 254 209 C253.4225 209.45375 252.845 209.9075 252.25 210.375 C249.54659439 212.32745961 246.73045079 214.05090804 243.890625 215.796875 C241.894019 217.02575076 241.894019 217.02575076 239.75 218.75 C237.83716333 220.1163119 236.25809346 220.45494296 234 221 C233.67 221.66 233.34 222.32 233 223 C231.66666667 223.33333333 230.33333333 223.66666667 229 224 C228.67 224.66 228.34 225.32 228 226 C227.01 226 226.02 226 225 226 C224.67 226.66 224.34 227.32 224 228 C222.3984375 228.96484375 222.3984375 228.96484375 220.375 229.9375 C219.65441406 230.28425781 218.93382812 230.63101563 218.19140625 230.98828125 C215.15115275 232.39189204 212.09314966 233.71605109 209 235 C208.175 235.37125 207.35 235.7425 206.5 236.125 C204 237 204 237 200.25 237.5 C199.1775 237.665 198.105 237.83 197 238 C196.67 238.66 196.34 239.32 196 240 C192.5625 241.1875 192.5625 241.1875 189 242 C188.34 241.67 187.68 241.34 187 241 C186.67 241.66 186.34 242.32 186 243 C184.01178687 243.39764263 182.00875442 243.72428861 180 244 C179.2575 244.20625 178.515 244.4125 177.75 244.625 C176 245 176 245 174 244 C173.67 244.66 173.34 245.32 173 246 C170.67624308 246.39460023 168.3406065 246.72230092 166 247 C165.36578125 247.16209961 164.7315625 247.32419922 164.078125 247.49121094 C154.54188601 249.82597622 144.32649844 249.01269198 134.61328125 248.609375 C133.54464844 248.58875 132.47601563 248.568125 131.375 248.546875 C130.41335937 248.51432617 129.45171875 248.48177734 128.4609375 248.44824219 C125.73883154 248.77380555 125.73883154 248.77380555 124.1640625 251.52832031 C123.77992187 252.34397461 123.39578125 253.15962891 123 254 C123.99 253.67 124.98 253.34 126 253 C128.70160318 253.26144547 131.32540654 253.57769577 134 254 C134.969375 254.144375 135.93875 254.28875 136.9375 254.4375 C137.618125 254.623125 138.29875 254.80875 139 255 C139.33 255.66 139.66 256.32 140 257 C140.70125 256.814375 141.4025 256.62875 142.125 256.4375 C145.33888698 255.94843024 147.83560336 256.33768442 151 257 C151 257.66 151 258.32 151 259 C152.65 258.67 154.3 258.34 156 258 C156 258.66 156 259.32 156 260 C156.99 259.67 157.98 259.34 159 259 C161.35151077 259.59940471 163.68308546 260.27833809 166 261 C168.6606021 261.69305894 171.32986916 262.34417839 174 263 C174 263.66 174 264.32 174 265 C174.99 264.67 175.98 264.34 177 264 C178.69287785 264.95495674 180.35857037 265.9590934 182 267 C183.32796291 267.35412344 184.66216607 267.68521554 186 268 C188.33333333 269 190.66666667 270 193 271 C194.32276056 271.37308631 195.65232077 271.73046415 197 272 C197 272.66 197 273.32 197 274 C198.98 274.33 200.96 274.66 203 275 C203 275.66 203 276.32 203 277 C205.31 277.66 207.62 278.32 210 279 C210 279.66 210 280.32 210 281 C211.65 281.33 213.3 281.66 215 282 C215 282.66 215 283.32 215 284 C215.99 284 216.98 284 218 284 C220 286 220 286 221 288 C221.99 288 222.98 288 224 288 C224 288.66 224 289.32 224 290 C224.86625 290.433125 224.86625 290.433125 225.75 290.875 C226.4925 291.24625 227.235 291.6175 228 292 C229.0209375 292.433125 229.0209375 292.433125 230.0625 292.875 C232.38551688 294.22384851 233.41344871 295.86160478 235 298 C235.99 298.33 236.98 298.66 238 299 C239.35368596 300.31266518 240.68799596 301.64567325 242 303 C242.66 303.33 243.32 303.66 244 304 C244 304.66 244 305.32 244 306 C244.66 306 245.32 306 246 306 C246.33 306.99 246.66 307.98 247 309 C248.31129922 310.35500919 249.64691687 311.68671343 251 313 C252.86034415 315.21810264 253.9929999 316.98229386 255.0625 319.6875 C255.76803846 322.15938605 255.76803846 322.15938605 258 323 C258.70674629 324.31252882 259.36184656 325.65278717 260 327 C260.7030525 328.21141353 261.41177423 329.41954799 262.125 330.625 C264 334 264 334 264 336 C264.66 336.33 265.32 336.66 266 337 C266.71727778 338.64551962 267.38325228 340.31422289 268 342 C268.33 342.66 268.66 343.32 269 344 C268.67 344.66 268.34 345.32 268 346 C268.66 346.33 269.32 346.66 270 347 C271 349.625 271 349.625 272 353 C272.391875 354.2375 272.78375 355.475 273.1875 356.75 C274 360 274 360 273 362 C273.66 362.33 274.32 362.66 275 363 C276.32571431 368.5680001 276.76395644 374.48763614 275 380 C274.34 380 273.68 380 273 380 C272.896875 380.66 272.79375 381.32 272.6875 382 C271.44105911 387.43901481 270.13742593 392.12884405 266 396 C265.03448411 397.16072949 264.07629792 398.32758959 263.125 399.5 C260.67520476 402.39355468 258.35677199 404.18552865 255 406 C253.97980427 406.9793879 252.97850195 407.97895449 252 409 C249.90029374 410.67976501 247.83369665 412.09562443 245.5 413.4375 C242.91021235 414.92582759 242.91021235 414.92582759 240.8125 417.1875 C239 419 239 419 237 419 C237 419.66 237 420.32 237 421 C236.34 421.33 235.68 421.66 235 422 C233.98133771 423.65532623 232.98189187 425.32260138 232 427 C231.34 427.66 230.68 428.32 230 429 C227.9628037 431.54649538 226.3733484 434.04201882 225 437 C224.34 437 223.68 437 223 437 C222.67 438.65 222.34 440.3 222 442 C221.34 442 220.68 442 220 442 C219.731875 443.216875 219.46375 444.43375 219.1875 445.6875 C218.29752626 449.25992978 216.99509584 451.88765049 215 455 C214.54625 456.155 214.0925 457.31 213.625 458.5 C211.10286591 463.93228881 207.36283621 467.38398233 202 470 C196.30007536 471.32303497 190.56613486 471.14771928 184.75 471.125 C183.74453125 471.12886719 182.7390625 471.13273437 181.703125 471.13671875 C180.7440625 471.13542969 179.785 471.13414062 178.796875 471.1328125 C177.92385742 471.13168457 177.05083984 471.13055664 176.15136719 471.12939453 C174 471 174 471 172 470 C169.47258299 469.97954691 166.96312943 470.00610134 164.4375 470.0625 C155.88716187 470.15103056 148.51101379 469.50660827 141 465 C140.67 464.34 140.34 463.68 140 463 C139.46375 462.731875 138.9275 462.46375 138.375 462.1875 C135.54436889 460.77218444 133.13007501 458.99309013 130.5859375 457.12109375 C128.98520209 455.92963819 128.98520209 455.92963819 127 455 C127 454.34 127 453.68 127 453 C126.34 453 125.68 453 125 453 C124.35165346 451.730447 123.70642185 450.45930294 123.0625 449.1875 C122.70285156 448.47980469 122.34320313 447.77210938 121.97265625 447.04296875 C121 445 121 445 120 442 C119.34 441.67 118.68 441.34 118 441 C117.66666667 439.66666667 117.33333333 438.33333333 117 437 C116.34 436.67 115.68 436.34 115 436 C114.66666667 434.66666667 114.33333333 433.33333333 114 432 C113.34 431.67 112.68 431.34 112 431 C110 426.66666667 110 426.66666667 110 424 C109.34 423.67 108.68 423.34 108 423 C105.17767785 418.38065242 102 412.47758091 102 407 C101.34 406.67 100.68 406.34 100 406 C99.25610592 404.1402648 98.52334736 402.27508619 97.85546875 400.38671875 C96.9474617 397.85342053 95.9518454 395.36749929 94.9375 392.875 C93.00389487 388.05936746 91.35273683 383.24495353 89.9375 378.25 C89.14882609 375.14615772 89.14882609 375.14615772 88 373 C88.33 372.34 88.66 371.68 89 371 C88.34 370.67 87.68 370.34 87 370 C86.24073115 367.45526298 85.58964292 364.95929438 85 362.375 C84.66782967 360.96587118 84.33450428 359.55701411 84 358.1484375 C83.83757812 357.45459961 83.67515625 356.76076172 83.5078125 356.04589844 C83.02247348 354.09054221 82.45061524 352.15727196 81.875 350.2265625 C81 347 81 347 81 343 C80.34 343 79.68 343 79 343 C78.7834375 341.3603125 78.7834375 341.3603125 78.5625 339.6875 C78.11711896 336.06877013 78.11711896 336.06877013 77 333 C77.33 332.34 77.66 331.68 78 331 C77.34 331 76.68 331 76 331 C76.04125 330.29875 76.0825 329.5975 76.125 328.875 C76.12877553 325.92845804 76.12877553 325.92845804 75 323 C74.02739412 320.08218235 73.91573463 318.03355336 74 315 C73.67 314.34 73.34 313.68 73 313 C73.020625 312.236875 73.04125 311.47375 73.0625 310.6875 C72.96747636 306.60148348 71.88511489 303.88511489 69 301 C68.01 301.33 67.02 301.66 66 302 C66.2165625 303.73636719 66.2165625 303.73636719 66.4375 305.5078125 C66.62518776 307.04685211 66.81267727 308.58591591 67 310.125 C67.09539062 310.88554687 67.19078125 311.64609375 67.2890625 312.4296875 C67.79951525 316.65915312 68 320.73574265 68 325 C68.33035484 326.6672596 68.66363508 328.33394252 69 330 C69.04200626 331.8745294 69.04131228 333.75045518 69 335.625 C68.92916399 338.85689283 68.96885417 340.90656252 70 344 C70.14608909 345.44699424 70.24678642 346.89887966 70.31640625 348.3515625 C70.35830078 349.20363281 70.40019531 350.05570313 70.44335938 350.93359375 C70.48267578 351.82175781 70.52199219 352.70992187 70.5625 353.625 C70.60568359 354.48996094 70.64886719 355.35492187 70.69335938 356.24609375 C70.89581688 360.53305106 71.01158689 364.79406746 70.96484375 369.0859375 C70.5408217 372.77439746 70.5408217 372.77439746 72 374 C72.07578696 376.19801125 72.08303348 378.39843468 72.0625 380.59765625 C72.05682007 381.59918983 72.05682007 381.59918983 72.05102539 382.62095642 C72.03468921 385.48297636 72.00686351 388.34485457 71.97949219 391.20678711 C71.91519413 398.55114861 71.89632366 405.72422599 73 413 C73.08371563 414.8318949 73.13052349 416.66620156 73.125 418.5 C73.12886719 419.78390625 73.12886719 419.78390625 73.1328125 421.09375 C73 424 73 424 72.4921875 427.66015625 C71.81673972 432.75190074 71.92894398 437.81080798 72 442.9375 C72.02537453 444.8215589 72.0464532 446.70568232 72.0625 448.58984375 C72.07410156 449.41347412 72.08570312 450.23710449 72.09765625 451.08569336 C72 453 72 453 71 454 C71.08564818 455.37627762 71.19374632 456.75118296 71.3125 458.125 C71.39896758 463.03793077 69.79535888 465.28320467 66.5078125 468.78515625 C65 470 65 470 63 470 C62.67 470.99 62.34 471.98 62 473 C61.34 473 60.68 473 60 473 C59.67 473.99 59.34 474.98 59 476 C57.41676312 476.027193 55.83338938 476.04648306 54.25 476.0625 C53.36828125 476.07410156 52.4865625 476.08570313 51.578125 476.09765625 C49.18547063 476.0070254 47.29192855 475.64318944 45 475 C43.37623561 474.68114198 41.75114514 474.3689853 40.125 474.0625 C30.18340437 472.05661104 30.18340437 472.05661104 27.25 469.4375 C25.68087606 466.37770832 25.0670212 463.38900668 24.4296875 460.0234375 C24.0767673 457.94381336 24.0767673 457.94381336 23 456 C22.91657841 454.55151418 22.89267139 453.09929131 22.90234375 451.6484375 C22.90556641 450.79765625 22.90878906 449.946875 22.91210938 449.0703125 C22.92048828 448.18085937 22.92886719 447.29140625 22.9375 446.375 C22.94201172 445.4778125 22.94652344 444.580625 22.95117188 443.65625 C22.96297409 441.43743352 22.97943845 439.21874982 23 437 C23.66 437 24.32 437 25 437 C24.79375 436.484375 24.5875 435.96875 24.375 435.4375 C23.65564921 430.76171987 25.7306671 426.51611492 27.625 422.3125 C29.25558511 418.98202917 29.25558511 418.98202917 29 415 C29.66 415 30.32 415 31 415 C31 412.69 31 410.38 31 408 C31.66 408 32.32 408 33 408 C32.79375 407.484375 32.5875 406.96875 32.375 406.4375 C31.83345524 402.91745905 32.8125899 400.31224922 34 397 C34.66 396.67 35.32 396.34 36 396 C35.814375 395.46375 35.62875 394.9275 35.4375 394.375 C34.88580676 391.38009386 35.39402556 388.96254171 36 386 C36.66 386 37.32 386 38 386 C37.505 382.535 37.505 382.535 37 379 C37.66 379 38.32 379 39 379 C38.814375 378.21625 38.62875 377.4325 38.4375 376.625 C37.87821522 371.99092608 38.22061759 367.59835624 39 363 C39.33 362.67 39.66 362.34 40 362 C40.0927833 360.61839885 40.11747043 359.23211962 40.11352539 357.84741211 C40.11344986 356.96657455 40.11337433 356.085737 40.11329651 355.1782074 C40.10813522 354.22092239 40.10297394 353.26363739 40.09765625 352.27734375 C40.0962413 351.30213272 40.09482635 350.32692169 40.09336853 349.32215881 C40.08775133 346.19390857 40.07519593 343.06572877 40.0625 339.9375 C40.05748722 337.82226666 40.05292393 335.70703219 40.04882812 333.59179688 C40.03777631 328.39450704 40.02102146 323.19725855 40 318 C36.72825985 320.51955552 34.69790173 322.24036045 33 326 C31.6875 327.4375 31.6875 327.4375 30 329 C26.39512901 332.42000581 23.73006724 335.8608658 21 340 C18.875 342.375 18.875 342.375 17 344 C16.34 344 15.68 344 15 344 C14.34 345.65 13.68 347.3 13 349 C12.34 349 11.68 349 11 349 C10.75378906 349.57234375 10.50757813 350.1446875 10.25390625 350.734375 C8.79788765 353.36518743 7.08222766 355.14808905 4.9375 357.25 C3.86822266 358.30960938 3.86822266 358.30960938 2.77734375 359.390625 C1 361 1 361 0 361 C0 241.87 0 122.74 0 0 Z " transform="translate(0,180)" style="fill: #40C69B;"/><path d="M0 0 C0.85529297 -0.01611328 1.71058594 -0.03222656 2.59179688 -0.04882812 C8.71876736 -0.05350163 14.9656366 0.45460498 19.69506836 4.8190918 C20.1463208 5.3119165 20.59757324 5.80474121 21.0625 6.3125 C22.68740124 8.078697 23.90453813 9.23351907 26.0625 10.3125 C28.98431385 11.77340692 30.71511337 13.90308004 32.8125 16.375 C37.4937879 20.40610902 44.41264581 20.82079681 50.375 21.8125 C51.87642311 22.07091239 53.37772603 22.3300241 54.87890625 22.58984375 C55.5970752 22.71343262 56.31524414 22.83702148 57.05517578 22.96435547 C69.2933926 25.08691655 69.2933926 25.08691655 74.0625 27.3125 C74.0625 27.9725 74.0625 28.6325 74.0625 29.3125 C74.8978125 29.6528125 74.8978125 29.6528125 75.75 30 C82.76849816 33.98347193 86.84019681 40.76573978 89.0625 48.3125 C91.67926061 62.41393219 92.8355845 77.55478585 88.0625 91.3125 C87.4025 91.6425 86.7425 91.9725 86.0625 92.3125 C86.3925 93.3025 86.7225 94.2925 87.0625 95.3125 C86.40052389 97.03363788 85.72372487 98.75199311 84.94140625 100.421875 C84.12373252 102.18078205 83.43106584 103.99632443 82.75 105.8125 C79.36481777 112.8336187 73.88850527 117.52167919 68.015625 122.515625 C65.86561838 124.35132353 65.86561838 124.35132353 64.0625 127.3125 C62.73729497 127.99518138 61.40437818 128.6632041 60.0625 129.3125 C59.7325 129.9725 59.4025 130.6325 59.0625 131.3125 C58.0725 131.3125 57.0825 131.3125 56.0625 131.3125 C56.0625 131.9725 56.0625 132.6325 56.0625 133.3125 C55.0725 133.6425 54.0825 133.9725 53.0625 134.3125 C52.7325 134.9725 52.4025 135.6325 52.0625 136.3125 C49.13019549 138.29378683 46.55147679 139.66639319 43.0625 140.3125 C43.0625 140.9725 43.0625 141.6325 43.0625 142.3125 C42.0725 142.3125 41.0825 142.3125 40.0625 142.3125 C39.7325 142.9725 39.4025 143.6325 39.0625 144.3125 C32.31264041 149.0225427 24.80265555 152.51295225 17.375 156 C16.38177734 156.47244141 15.38855469 156.94488281 14.36523438 157.43164062 C9.30404941 159.82939802 4.22957332 162.15265061 -0.9375 164.3125 C-1.948125 164.7353125 -2.95875 165.158125 -4 165.59375 C-5.4540625 166.19703125 -5.4540625 166.19703125 -6.9375 166.8125 C-11.28271033 168.6193651 -15.61720656 170.44691874 -19.9375 172.3125 C-16.86790184 174.10309893 -13.75040942 174.92499777 -10.30859375 175.73828125 C-5.82421993 176.82428282 -1.38515816 178.08612367 3.0625 179.3125 C3.0625 179.9725 3.0625 180.6325 3.0625 181.3125 C4.0525 180.9825 5.0425 180.6525 6.0625 180.3125 C6.0625 180.9725 6.0625 181.6325 6.0625 182.3125 C7.0525 181.9825 8.0425 181.6525 9.0625 181.3125 C10.86494002 182.14439539 12.65936191 182.99788057 14.41015625 183.93359375 C18.43483383 186.0259519 22.56789146 187.87984452 26.69433594 189.76171875 C30.29230144 191.42145557 33.69811247 193.22177346 37.0625 195.3125 C38.38858822 195.99346422 39.71936601 196.66580586 41.0625 197.3125 C41.0625 197.9725 41.0625 198.6325 41.0625 199.3125 C42.0525 199.3125 43.0425 199.3125 44.0625 199.3125 C44.0625 199.9725 44.0625 200.6325 44.0625 201.3125 C44.660625 201.415625 45.25875 201.51875 45.875 201.625 C48.4607798 202.43767365 49.26730175 203.30187796 51.0625 205.3125 C53.65936083 207.97954625 56.23863572 210.45628426 59.125 212.8125 C61.86979997 215.14849998 63.87498459 217.46872997 66.0625 220.3125 C66.805 221.034375 67.5475 221.75625 68.3125 222.5 C70.0625 224.3125 70.0625 224.3125 70.0625 226.3125 C70.7225 226.3125 71.3825 226.3125 72.0625 226.3125 C73.0390625 228.03776042 74.015625 229.76302083 74.9921875 231.48828125 C75.95678581 233.13232289 77.00517059 234.72650588 78.0625 236.3125 C78.0625 237.6325 78.0625 238.9525 78.0625 240.3125 C78.7225 240.6425 79.3825 240.9725 80.0625 241.3125 C82.43871358 247.70856785 82.36824104 254.58641432 82.3125 261.3125 C82.32023437 262.24578125 82.32796875 263.1790625 82.3359375 264.140625 C82.31454704 271.79840983 81.95603136 280.06902896 77.0625 286.3125 C73.66471254 289.68554629 70.87922461 292.42325853 66.0625 293.3125 C66.0625 293.9725 66.0625 294.6325 66.0625 295.3125 C61.13554778 297.51294871 56.22295331 299.30808075 51.0625 300.875 C50.05316406 301.18727539 50.05316406 301.18727539 49.0234375 301.50585938 C47.69025407 301.91636663 46.3556359 302.32224725 45.01953125 302.72314453 C43.70129866 303.12012725 42.38618113 303.52758668 41.07421875 303.94482422 C36.28467 305.423585 36.28467 305.423585 34.0625 304.3125 C33.7325 304.9725 33.4025 305.6325 33.0625 306.3125 C27.63942308 309.3125 27.63942308 309.3125 25.0625 309.3125 C24.7325 310.6325 24.4025 311.9525 24.0625 313.3125 C23.4025 313.3125 22.7425 313.3125 22.0625 313.3125 C22.0625 314.3025 22.0625 315.2925 22.0625 316.3125 C21.4025 316.3125 20.7425 316.3125 20.0625 316.3125 C19.6603125 317.1478125 19.6603125 317.1478125 19.25 318 C15.32598333 325.64150615 11.37947815 330.40155765 3.0625 333.3125 C0.77563169 333.89679292 -1.51093663 334.41440369 -3.82421875 334.8828125 C-5.22073223 335.16676164 -6.61001256 335.48927473 -7.98828125 335.8515625 C-17.27751441 338.04821483 -27.84752724 334.87607438 -35.9375 330.3125 C-36.9275 329.9825 -37.9175 329.6525 -38.9375 329.3125 C-39.625 327.25 -39.625 327.25 -39.9375 325.3125 C-40.5975 325.3125 -41.2575 325.3125 -41.9375 325.3125 C-42.22625 324.673125 -42.515 324.03375 -42.8125 323.375 C-43.76573451 321.16043921 -43.76573451 321.16043921 -45.9375 320.3125 C-48.9375 314.88942308 -48.9375 314.88942308 -48.9375 312.3125 C-49.5975 312.3125 -50.2575 312.3125 -50.9375 312.3125 C-50.9375 311.3225 -50.9375 310.3325 -50.9375 309.3125 C-51.5975 308.9825 -52.2575 308.6525 -52.9375 308.3125 C-58.92200044 297.88107858 -64.57170711 286.33147742 -65.9375 274.3125 C-66.5975 273.9825 -67.2575 273.6525 -67.9375 273.3125 C-68.68359375 271.23046875 -68.68359375 271.23046875 -69.375 268.5 C-69.62894531 267.51515625 -69.88289063 266.5303125 -70.14453125 265.515625 C-70.40621094 264.45859375 -70.66789062 263.4015625 -70.9375 262.3125 C-71.20949219 261.21421875 -71.48148438 260.1159375 -71.76171875 258.984375 C-72.27622414 256.90627518 -72.78576382 254.82693615 -73.2890625 252.74609375 C-73.84573523 250.32782235 -73.84573523 250.32782235 -74.9375 248.3125 C-74.6075 247.6525 -74.2775 246.9925 -73.9375 246.3125 C-76.08564018 247.09364241 -76.08564018 247.09364241 -76.51586914 249.01489258 C-76.66660889 249.73829834 -76.81734863 250.4617041 -76.97265625 251.20703125 C-77.14216797 251.99787109 -77.31167969 252.78871094 -77.48632812 253.60351562 C-77.65583984 254.43560547 -77.82535156 255.26769531 -78 256.125 C-78.3447701 257.75657003 -78.68981307 259.38808243 -79.03515625 261.01953125 C-79.18476807 261.7463208 -79.33437988 262.47311035 -79.48852539 263.22192383 C-79.92731509 265.26507564 -80.41895723 267.28827111 -80.9375 269.3125 C-81.5975 269.3125 -82.2575 269.3125 -82.9375 269.3125 C-82.6075 270.3025 -82.2775 271.2925 -81.9375 272.3125 C-82.42578125 274.2578125 -82.42578125 274.2578125 -83.25 276.4375 C-84.38231324 279.59363102 -85.27884125 282.64983582 -85.9375 285.9375 C-86.63766185 289.29943419 -87.71080455 292.18312847 -89.15234375 295.3125 C-90.53808184 298.84234032 -91.29806892 302.53997965 -92.17578125 306.22265625 C-93.26412101 310.6374088 -94.58379827 314.97297387 -95.9375 319.3125 C-96.5975 319.3125 -97.2575 319.3125 -97.9375 319.3125 C-97.6075 320.3025 -97.2775 321.2925 -96.9375 322.3125 C-97.64453125 324.58203125 -97.64453125 324.58203125 -98.75 327.125 C-100.31209264 330.8167276 -101.72916369 334.48610169 -102.9375 338.3125 C-103.5975 338.3125 -104.2575 338.3125 -104.9375 338.3125 C-104.9375 339.3025 -104.9375 340.2925 -104.9375 341.3125 C-108.27083333 344.3125 -108.27083333 344.3125 -110.9375 344.3125 C-110.9375 344.9725 -110.9375 345.6325 -110.9375 346.3125 C-118.02686838 348.50375932 -124.00711735 349.03204241 -130.9375 346 C-133.2964875 344.00960429 -133.56227188 343.32474795 -133.9375 340.3125 C-131.99489968 330.41380868 -127.36082357 321.29582287 -122.9375 312.3125 C-122.2775 312.3125 -121.6175 312.3125 -120.9375 312.3125 C-120.6075 310.6625 -120.2775 309.0125 -119.9375 307.3125 C-119.2775 307.3125 -118.6175 307.3125 -117.9375 307.3125 C-117.2775 305.0025 -116.6175 302.6925 -115.9375 300.3125 C-115.2775 300.3125 -114.6175 300.3125 -113.9375 300.3125 C-113.9375 299.3225 -113.9375 298.3325 -113.9375 297.3125 C-113.2775 297.3125 -112.6175 297.3125 -111.9375 297.3125 C-111.75574219 296.76722656 -111.57398438 296.22195313 -111.38671875 295.66015625 C-111.13535156 294.90605469 -110.88398437 294.15195312 -110.625 293.375 C-110.35429688 292.5603125 -110.08359375 291.745625 -109.8046875 290.90625 C-109.23282371 289.19581055 -108.65482923 287.48740694 -108.0703125 285.78125 C-107.79960938 284.9871875 -107.52890625 284.193125 -107.25 283.375 C-106.99863281 282.64410156 -106.74726562 281.91320312 -106.48828125 281.16015625 C-105.84227515 279.31439152 -105.84227515 279.31439152 -105.9375 277.3125 C-105.2775 277.3125 -104.6175 277.3125 -103.9375 277.3125 C-104.2675 276.3225 -104.5975 275.3325 -104.9375 274.3125 C-104.60205078 272.53955078 -104.60205078 272.53955078 -104.0078125 270.3828125 C-102.15045375 261.79525971 -102.72900229 252.92482601 -102.8125 244.1875 C-102.8225483 242.35417155 -102.83167088 240.52083777 -102.83984375 238.6875 C-102.86171436 234.22903366 -102.89614261 229.77082642 -102.9375 225.3125 C-103.22810303 225.89894287 -103.51870605 226.48538574 -103.81811523 227.08959961 C-104.79897603 229.03741586 -105.81002537 230.96095679 -106.84765625 232.87890625 C-107.37262695 233.8544043 -107.37262695 233.8544043 -107.90820312 234.84960938 C-108.63857919 236.20452883 -109.37036035 237.55869176 -110.10351562 238.91210938 C-111.59449342 241.68736748 -112.93913855 244.31741564 -113.9375 247.3125 C-114.5975 247.3125 -115.2575 247.3125 -115.9375 247.3125 C-116.246875 248.240625 -116.55625 249.16875 -116.875 250.125 C-117.5625 252.1875 -118.25 254.25 -118.9375 256.3125 C-119.5975 256.3125 -120.2575 256.3125 -120.9375 256.3125 C-120.9375 257.3025 -120.9375 258.2925 -120.9375 259.3125 C-121.5975 259.3125 -122.2575 259.3125 -122.9375 259.3125 C-124.01275194 261.96478812 -125.03206151 264.59618454 -125.9375 267.3125 C-126.5975 267.3125 -127.2575 267.3125 -127.9375 267.3125 C-127.9375 268.3025 -127.9375 269.2925 -127.9375 270.3125 C-128.5975 270.6425 -129.2575 270.9725 -129.9375 271.3125 C-130.2675 272.3025 -130.5975 273.2925 -130.9375 274.3125 C-131.5975 274.3125 -132.2575 274.3125 -132.9375 274.3125 C-132.9375 275.3025 -132.9375 276.2925 -132.9375 277.3125 C-133.9275 277.9725 -134.9175 278.6325 -135.9375 279.3125 C-136.60738015 280.64422174 -137.27387457 281.97765038 -137.9375 283.3125 C-139.5234375 284.83984375 -139.5234375 284.83984375 -141.3125 286.25 C-144.29506478 288.69754801 -146.53318225 291.28771316 -148.9375 294.3125 C-150.88170867 296.05504873 -152.90579691 297.66984644 -154.9375 299.3125 C-156.49537308 300.81267407 -157.97081162 302.34858758 -159.4375 303.9375 C-160.9375 305.3125 -160.9375 305.3125 -163.9375 306.3125 C-164.2675 306.9725 -164.5975 307.6325 -164.9375 308.3125 C-165.9275 308.3125 -166.9175 308.3125 -167.9375 308.3125 C-167.9375 308.9725 -167.9375 309.6325 -167.9375 310.3125 C-168.9275 310.6425 -169.9175 310.9725 -170.9375 311.3125 C-171.5975 311.9725 -172.2575 312.6325 -172.9375 313.3125 C-175.0625 313.9375 -175.0625 313.9375 -176.9375 314.3125 C-176.9375 314.9725 -176.9375 315.6325 -176.9375 316.3125 C-178.071875 316.60125 -179.20625 316.89 -180.375 317.1875 C-181.550625 317.55875 -182.72625 317.93 -183.9375 318.3125 C-184.2675 318.9725 -184.5975 319.6325 -184.9375 320.3125 C-192.43425888 326.443324 -200.18489 326.87911445 -209.5 326.875 C-211.0778125 326.87814209 -211.0778125 326.87814209 -212.6875 326.88134766 C-219.84054007 326.73288412 -226.13034616 325.45148132 -232.9375 323.3125 C-234.7009375 322.8484375 -234.7009375 322.8484375 -236.5 322.375 C-238.9375 321.3125 -238.9375 321.3125 -240.1875 319.25 C-240.435 318.610625 -240.6825 317.97125 -240.9375 317.3125 C-241.5975 316.9825 -242.2575 316.6525 -242.9375 316.3125 C-242.9375 315.3225 -242.9375 314.3325 -242.9375 313.3125 C-243.5975 312.9825 -244.2575 312.6525 -244.9375 312.3125 C-249.19901127 303.97476056 -251.08589467 294.66077726 -251.7265625 285.37109375 C-251.88215793 283.1153955 -251.88215793 283.1153955 -252.9375 280.3125 C-252.6075 279.3225 -252.2775 278.3325 -251.9375 277.3125 C-252.5975 276.9825 -253.2575 276.6525 -253.9375 276.3125 C-254.7890625 274.31640625 -254.7890625 274.31640625 -255.5625 271.875 C-255.95308594 270.67037109 -255.95308594 270.67037109 -256.3515625 269.44140625 C-256.9375 267.3125 -256.9375 267.3125 -256.9375 265.3125 C-257.5975 264.9825 -258.2575 264.6525 -258.9375 264.3125 C-259.5625 262.25 -259.5625 262.25 -259.9375 260.3125 C-260.5975 260.3125 -261.2575 260.3125 -261.9375 260.3125 C-261.9375 259.3225 -261.9375 258.3325 -261.9375 257.3125 C-262.5975 257.3125 -263.2575 257.3125 -263.9375 257.3125 C-264.22625 256.673125 -264.515 256.03375 -264.8125 255.375 C-265.76573451 253.16043921 -265.76573451 253.16043921 -267.9375 252.3125 C-267.9375 251.3225 -267.9375 250.3325 -267.9375 249.3125 C-268.5975 249.3125 -269.2575 249.3125 -269.9375 249.3125 C-270.13417089 246.79208689 -270.32004317 244.27161728 -270.5 241.75 C-270.55607422 241.04552734 -270.61214844 240.34105469 -270.66992188 239.61523438 C-271.14281552 232.77403958 -270.30600832 226.78642275 -267.9375 220.3125 C-267.2775 220.3125 -266.6175 220.3125 -265.9375 220.3125 C-265.875625 219.6525 -265.81375 218.9925 -265.75 218.3125 C-264.33933731 213.10389931 -261.78787634 208.59014081 -257.3125 205.5 C-256.136875 204.9121875 -256.136875 204.9121875 -254.9375 204.3125 C-254.380625 203.755625 -253.82375 203.19875 -253.25 202.625 C-251.9375 201.3125 -251.9375 201.3125 -249.9375 201.3125 C-249.9375 200.6525 -249.9375 199.9925 -249.9375 199.3125 C-248.9784375 199.126875 -248.9784375 199.126875 -248 198.9375 C-247.319375 198.73125 -246.63875 198.525 -245.9375 198.3125 C-245.6075 197.6525 -245.2775 196.9925 -244.9375 196.3125 C-242.875 195.6875 -242.875 195.6875 -240.9375 195.3125 C-240.9375 194.6525 -240.9375 193.9925 -240.9375 193.3125 C-221.37724394 183.83895906 -201.91508105 180.1683502 -180.26171875 180.14453125 C-179.17526566 180.14120285 -178.08881256 180.13787445 -176.96943665 180.13444519 C-174.6794171 180.12941218 -172.38939031 180.12703573 -170.09936523 180.12719727 C-166.67223321 180.12502987 -163.24543386 180.10688744 -159.81835938 180.08789062 C-145.74437212 180.05323595 -131.92542912 180.75671861 -117.9375 182.3125 C-117.9375 181.6525 -117.9375 180.9925 -117.9375 180.3125 C-118.47375 180.34730469 -119.01 180.38210938 -119.5625 180.41796875 C-130.84350532 180.80760874 -142.01110733 177.84898401 -152.9375 175.3125 C-152.9375 174.6525 -152.9375 173.9925 -152.9375 173.3125 C-153.9275 173.6425 -154.9175 173.9725 -155.9375 174.3125 C-157.83613349 173.64631281 -159.73209968 172.96870925 -161.59765625 172.21484375 C-165.62961008 170.65995003 -169.78839854 169.51131825 -173.9375 168.3125 C-173.9375 167.6525 -173.9375 166.9925 -173.9375 166.3125 C-174.659375 166.374375 -175.38125 166.43625 -176.125 166.5 C-179.55098911 166.27160073 -181.04191963 165.13065511 -183.9375 163.3125 C-185.96239252 162.48634385 -188.00837057 161.74699356 -190.06640625 161.0078125 C-192.10605923 160.24986213 -194.02448532 159.34871629 -195.9375 158.3125 C-195.9375 157.6525 -195.9375 156.9925 -195.9375 156.3125 C-198.2475 155.6525 -200.5575 154.9925 -202.9375 154.3125 C-202.9375 153.6525 -202.9375 152.9925 -202.9375 152.3125 C-204.5875 151.9825 -206.2375 151.6525 -207.9375 151.3125 C-207.9375 150.6525 -207.9375 149.9925 -207.9375 149.3125 C-208.9275 149.3125 -209.9175 149.3125 -210.9375 149.3125 C-210.9375 148.6525 -210.9375 147.9925 -210.9375 147.3125 C-212.5875 146.9825 -214.2375 146.6525 -215.9375 146.3125 C-215.9375 145.6525 -215.9375 144.9925 -215.9375 144.3125 C-216.9275 144.3125 -217.9175 144.3125 -218.9375 144.3125 C-218.9375 143.6525 -218.9375 142.9925 -218.9375 142.3125 C-220.5875 141.9825 -222.2375 141.6525 -223.9375 141.3125 C-223.9375 140.6525 -223.9375 139.9925 -223.9375 139.3125 C-224.9275 139.3125 -225.9175 139.3125 -226.9375 139.3125 C-228.3302289 137.69513741 -229.65687515 136.0199998 -230.9375 134.3125 C-232.74914536 132.44595629 -234.58600009 130.63587992 -236.5 128.875 C-239.44415857 125.67482764 -240.89903948 122.46634209 -241.9375 118.3125 C-242.5975 117.9825 -243.2575 117.6525 -243.9375 117.3125 C-247.2425342 112.19502769 -249.1516415 107.10851981 -250.9375 101.3125 C-251.288125 100.343125 -251.63875 99.37375 -252 98.375 C-255.5369173 86.82107015 -257.08941196 75.08658434 -253.9375 63.3125 C-253.2775 63.3125 -252.6175 63.3125 -251.9375 63.3125 C-252.2675 62.3225 -252.5975 61.3325 -252.9375 60.3125 C-252.6075 59.6525 -252.2775 58.9925 -251.9375 58.3125 C-251.2775 58.3125 -250.6175 58.3125 -249.9375 58.3125 C-249.5353125 56.9821875 -249.5353125 56.9821875 -249.125 55.625 C-246.89076037 49.39264736 -244.17617897 46.48658338 -238.84765625 42.734375 C-236.78836502 41.30841739 -236.78836502 41.30841739 -234.9375 39 C-231.88749263 36.42655629 -228.86591424 36.6989014 -224.9375 36.3125 C-224.4425 35.3225 -224.4425 35.3225 -223.9375 34.3125 C-222.9475 34.8075 -222.9475 34.8075 -221.9375 35.3125 C-221.4425 34.3225 -221.4425 34.3225 -220.9375 33.3125 C-219.9475 32.9825 -218.9575 32.6525 -217.9375 32.3125 C-217.23039322 30.66258418 -216.57187344 28.9917238 -215.9375 27.3125 C-215.009375 25.95125 -215.009375 25.95125 -214.0625 24.5625 C-212.30215736 21.87021126 -211.30646422 19.76339679 -210.1875 16.8125 C-207.59673123 10.76397292 -203.12956375 7.62424569 -197.15234375 5.16796875 C-186.9774368 2.46042972 -175.09735547 4.28615764 -164.9375 6.3125 C-163.85082031 6.5290625 -163.85082031 6.5290625 -162.7421875 6.75 C-156.96896677 8.05890834 -151.4639673 10.21975687 -145.9375 12.3125 C-145.9375 12.9725 -145.9375 13.6325 -145.9375 14.3125 C-144.82375 14.60125 -143.71 14.89 -142.5625 15.1875 C-138.9375 16.3125 -138.9375 16.3125 -136.9375 18.3125 C-135.885625 19.01375 -134.83375 19.715 -133.75 20.4375 C-129.49829152 23.42977382 -125.99177246 27.10707318 -122.9375 31.3125 C-122.9375 31.9725 -122.9375 32.6325 -122.9375 33.3125 C-122.2775 33.3125 -121.6175 33.3125 -120.9375 33.3125 C-120.9375 34.3025 -120.9375 35.2925 -120.9375 36.3125 C-120.2775 36.3125 -119.6175 36.3125 -118.9375 36.3125 C-118.09930842 37.93499941 -117.2670884 39.56058497 -116.4375 41.1875 C-115.9734375 42.09242188 -115.509375 42.99734375 -115.03125 43.9296875 C-113.9375 46.3125 -113.9375 46.3125 -113.9375 48.3125 C-113.2775 48.6425 -112.6175 48.9725 -111.9375 49.3125 C-110.82453778 51.37984175 -109.7945969 53.49237896 -108.8125 55.625 C-108.27367187 56.77613281 -107.73484375 57.92726562 -107.1796875 59.11328125 C-105.9375 62.3125 -105.9375 62.3125 -105.9375 66.3125 C-105.2775 66.6425 -104.6175 66.9725 -103.9375 67.3125 C-102.99737433 69.76678446 -102.15910158 72.18395905 -101.375 74.6875 C-101.04338867 75.71617187 -101.04338867 75.71617187 -100.70507812 76.765625 C-100.11031667 78.61279954 -99.52352624 80.46253562 -98.9375 82.3125 C-98.6075 83.3025 -98.2775 84.2925 -97.9375 85.3125 C-98.2675 85.9725 -98.5975 86.6325 -98.9375 87.3125 C-98.2775 87.6425 -97.6175 87.9725 -96.9375 88.3125 C-96.19140625 90.98046875 -96.19140625 90.98046875 -95.5 94.5 C-95.24476563 95.7684375 -94.98953125 97.036875 -94.7265625 98.34375 C-94.59668945 99.00246094 -94.46681641 99.66117187 -94.33300781 100.33984375 C-93.71912916 103.40165826 -93.04311176 106.44963114 -92.375 109.5 C-90.62811479 117.67652031 -88.97318251 125.81356412 -88.18359375 134.14453125 C-87.99918013 135.76912745 -87.74681928 137.38625127 -87.4609375 138.99609375 C-87.04912954 141.6052352 -86.75900809 144.13802227 -86.54296875 146.765625 C-86.43952148 147.94125 -86.43952148 147.94125 -86.33398438 149.140625 C-86.19340529 150.76976574 -86.06602387 152.40009365 -85.95117188 154.03125 C-85.74815454 156.20155924 -85.53313198 158.21522076 -84.9375 160.3125 C-83.05364849 161.89553615 -83.05364849 161.89553615 -80.9375 162.3125 C-80.6075 162.6425 -80.2775 162.9725 -79.9375 163.3125 C-79.28148256 161.79603179 -78.6382336 160.27403825 -78 158.75 C-77.64035156 157.90308594 -77.28070312 157.05617188 -76.91015625 156.18359375 C-74.7467303 149.7975774 -74.81080516 143.34506586 -74.875 136.6875 C-74.87878662 135.78177246 -74.88257324 134.87604492 -74.88647461 133.94287109 C-74.8986205 131.06603071 -74.91724089 128.18929398 -74.9375 125.3125 C-74.96420186 121.52083573 -74.98414775 117.72922347 -75 113.9375 C-75.01244751 112.64658447 -75.01244751 112.64658447 -75.02514648 111.32958984 C-75.04445026 106.55072919 -74.70251282 102.044774 -73.9375 97.3125 C-73.91919679 95.37497445 -73.94036952 93.43669422 -74 91.5 C-74.13820742 74.40176816 -71.62302276 57.68354552 -63.9375 42.3125 C-63.2775 42.3125 -62.6175 42.3125 -61.9375 42.3125 C-61.9375 41.3225 -61.9375 40.3325 -61.9375 39.3125 C-61.2775 38.9825 -60.6175 38.6525 -59.9375 38.3125 C-59.6075 37.3225 -59.2775 36.3325 -58.9375 35.3125 C-57.6875 33.9375 -57.6875 33.9375 -55.9375 32.3125 C-53.45613704 29.89476174 -51.10292152 27.5192769 -48.9375 24.8125 C-45.76284882 20.84418603 -42.72228378 17.26185636 -37.9375 15.3125 C-37.9375 14.6525 -37.9375 13.9925 -37.9375 13.3125 C-36.9475 12.9825 -35.9575 12.6525 -34.9375 12.3125 C-34.6075 11.6525 -34.2775 10.9925 -33.9375 10.3125 C-32.9475 10.3125 -31.9575 10.3125 -30.9375 10.3125 C-30.9375 9.6525 -30.9375 8.9925 -30.9375 8.3125 C-29.15039414 7.44883178 -27.3576535 6.59681406 -25.5625 5.75 C-24.56476563 5.27433594 -23.56703125 4.79867187 -22.5390625 4.30859375 C-21.68054687 3.97988281 -20.82203125 3.65117188 -19.9375 3.3125 C-18.9475 3.8075 -18.9475 3.8075 -17.9375 4.3125 C-17.6075 3.6525 -17.2775 2.9925 -16.9375 2.3125 C-11.28384274 0.18768592 -5.99591844 -0.02249032 0 0 Z " transform="translate(1212.9375,114.6875)" style="fill: #40C69B;"/><path d="M0 0 C17.22569689 1.89473048 17.22569689 1.89473048 24.46875 2.78125 C67.90202961 8.02853376 111.40974445 8.21491142 155 5 C157.56117219 4.81864672 160.12236961 4.63764937 162.68359375 4.45703125 C173.12844269 3.7084503 183.56557806 2.88170054 194 2 C194.46578752 53.54118047 191.57787236 104.04517708 184.0625 155.0625 C183.89941345 156.19270569 183.7363269 157.32291138 183.56829834 158.48736572 C181.24623794 174.44538007 178.29815108 189.6049675 171.5625 204.375 C171.11438965 205.36838379 171.11438965 205.36838379 170.65722656 206.38183594 C162.05057641 225.12256512 148.42494474 239.690009 129.00488281 247.28369141 C108.6288589 254.56367852 79.51000727 254.21936606 59.80859375 245.40625 C36.69304963 233.83240315 24.85715503 213.12015549 16.82373047 189.54296875 C6.34152444 157.18296343 4.44322413 120.13196788 2.4296875 86.4296875 C2.17848277 82.32463458 1.78358995 78.30003853 1.22753906 74.22412109 C0.63845239 68.46598852 0.59715558 62.65811638 0.4375 56.875 C0.40573166 55.78931732 0.40573166 55.78931732 0.37332153 54.68170166 C-0.15137062 36.45678171 -0.09811084 18.23050323 0 0 Z " transform="translate(581,1107)" style="fill: #F9C93A;"/><path d="M0 0 C0.76570313 0.1340625 1.53140625 0.268125 2.3203125 0.40625 C3.55394531 0.63828125 3.55394531 0.63828125 4.8125 0.875 C5.58207031 1.01679687 6.35164063 1.15859375 7.14453125 1.3046875 C7.75683594 1.53414062 8.36914062 1.76359375 9 2 C9.495 3.485 9.495 3.485 10 5 C10.7425 5.2475 11.485 5.495 12.25 5.75 C15.69002561 7.313648 16.81304402 9.21394892 18.7890625 12.34375 C20.07014892 14.29541672 20.07014892 14.29541672 23 16 C26 20.44444444 26 20.44444444 26 23 C26.66 23 27.32 23 28 23 C28 23.99 28 24.98 28 26 C28.66 26 29.32 26 30 26 C31.19297796 27.72319039 32.38391638 29.44787644 33.55859375 31.18359375 C35.0191108 33.02408272 36.32909845 34.07932126 38.3125 35.3125 C39.199375 35.869375 40.08625 36.42625 41 37 C41 37.66 41 38.32 41 39 C41.99 39 42.98 39 44 39 C44 39.66 44 40.32 44 41 C44.99 41 45.98 41 47 41 C47 41.66 47 42.32 47 43 C48.65 43.33 50.3 43.66 52 44 C52 44.66 52 45.32 52 46 C53.65 46.33 55.3 46.66 57 47 C57 47.66 57 48.32 57 49 C57.61875 49.20625 58.2375 49.4125 58.875 49.625 C62.01147243 51.65448216 62.17072235 53.36393644 63 57 C63.89459686 63.18762828 64.23397823 68.83010885 63 75 C62.814375 76.17175781 62.814375 76.17175781 62.625 77.3671875 C61.75078252 82.5032152 60.42727896 86.74465426 57.90234375 91.30859375 C56.85295987 93.16189894 56.85295987 93.16189894 56 96 C55.01 96.495 55.01 96.495 54 97 C53.505 98.485 53.505 98.485 53 100 C52.34 100 51.68 100 51 100 C51 100.99 51 101.98 51 103 C50.34 103 49.68 103 49 103 C48.773125 103.556875 48.54625 104.11375 48.3125 104.6875 C46.61856764 107.67204749 44.48385302 109.62654045 42 112 C40.74587584 113.22495848 39.49600694 114.45428574 38.25 115.6875 C37.65703125 116.26886719 37.0640625 116.85023437 36.453125 117.44921875 C34.90358196 118.95513974 34.90358196 118.95513974 34 121 C32.515 121.495 32.515 121.495 31 122 C30.67 122.66 30.34 123.32 30 124 C28.515 124.495 28.515 124.495 27 125 C26.67 125.66 26.34 126.32 26 127 C25.01 127 24.02 127 23 127 C23 127.66 23 128.32 23 129 C21.35 129.33 19.7 129.66 18 130 C18 130.66 18 131.32 18 132 C16.5459375 132.433125 16.5459375 132.433125 15.0625 132.875 C11.89335797 133.64214682 11.89335797 133.64214682 11 136 C8.43862425 137.51597704 5.88542085 138.9363564 3.25 140.3125 C2.47720703 140.71621826 1.70441406 141.11993652 0.90820312 141.53588867 C-10.41800266 147.35942272 -21.73513265 150.91591096 -34.12792969 153.58886719 C-36.55395397 154.12165604 -38.96221762 154.72305805 -41.375 155.3125 C-45 156 -45 156 -48 155 C-48 155.66 -48 156.32 -48 157 C-48.66 157 -49.32 157 -50 157 C-50 159.31 -50 161.62 -50 164 C-48.845 164.020625 -47.69 164.04125 -46.5 164.0625 C-45.52546875 164.07990234 -45.52546875 164.07990234 -44.53125 164.09765625 C-41.79390296 164.03488737 -41.79390296 164.03488737 -38.2890625 163.4765625 C-33.7704594 162.88514161 -29.41333568 163.03315893 -24.875 163.3125 C-24.10285156 163.34794922 -23.33070312 163.38339844 -22.53515625 163.41992188 C-18.0255715 163.67728319 -14.26620371 164.40176547 -10 166 C-8.63875 166.185625 -8.63875 166.185625 -7.25 166.375 C-2.5658606 167.27579604 1.61263534 169.16446989 6 171 C7.87376508 171.75307997 9.74871975 172.50320857 11.625 173.25 C13.08333333 173.83333333 14.54166667 174.41666667 16 175 C16 175.66 16 176.32 16 177 C17.65 177.33 19.3 177.66 21 178 C21 178.66 21 179.32 21 180 C21.99 180 22.98 180 24 180 C24 180.66 24 181.32 24 182 C24.99 182 25.98 182 27 182 C27 182.66 27 183.32 27 184 C27.5775 184.28875 28.155 184.5775 28.75 184.875 C29.4925 185.24625 30.235 185.6175 31 186 C31.639375 186.268125 32.27875 186.53625 32.9375 186.8125 C37.98804763 189.72039106 41.58640199 194.78205718 45.36328125 199.140625 C47.65151184 201.74014233 50.0817153 204.15235258 52.625 206.5 C54.18618924 208.20311553 54.97034927 209.94069854 56 212 C56.804375 212.804375 56.804375 212.804375 57.625 213.625 C59 215 59 215 59 217 C59.66 217 60.32 217 61 217 C61.45375 217.94875 61.9075 218.8975 62.375 219.875 C63.80238254 223.00313679 63.80238254 223.00313679 66 225 C69 229.61538462 69 229.61538462 69 232 C69.66 232 70.32 232 71 232 C72.00936536 234.078812 73.00717846 236.1632362 74 238.25 C74.556875 239.41015625 75.11375 240.5703125 75.6875 241.765625 C77 245 77 245 77 249 C77.66 249.33 78.32 249.66 79 250 C81.93893559 256.40869215 83.02031021 263.17232514 81 270 C78.625 272.875 78.625 272.875 76 275 C75.319375 276.0209375 75.319375 276.0209375 74.625 277.0625 C72.68125054 279.38004743 70.46280125 280.58564275 67.81640625 282 C65.77235314 283.08416079 65.77235314 283.08416079 63.125 285 C57.56985816 288.55529078 51.95293395 290.79813968 45.5625 292.375 C43.07853459 293.03598031 43.07853459 293.03598031 41 294 C39.37059931 296.63315381 39.37059931 296.63315381 39 300 C38.47998194 301.63205668 37.93722972 303.25699953 37.375 304.875 C37.11460938 305.65617187 36.85421875 306.43734375 36.5859375 307.2421875 C36.39257812 307.82226562 36.19921875 308.40234375 36 309 C35.34 309 34.68 309 34 309 C34.020625 309.78375 34.04125 310.5675 34.0625 311.375 C34 314 34 314 33 316 C32.01 316 31.02 316 30 316 C30 316.66 30 317.32 30 318 C28.56570999 318.67354499 27.12742943 319.33859701 25.6875 320 C24.88699219 320.37125 24.08648437 320.7425 23.26171875 321.125 C21 322 21 322 18 322 C17.67 322.66 17.34 323.32 17 324 C5.43680991 325.99809862 -7.64152458 327.1383558 -18 321 C-18 320.34 -18 319.68 -18 319 C-18.53625 318.938125 -19.0725 318.87625 -19.625 318.8125 C-23.04369966 317.64294485 -25.26923885 315.32405204 -28 313 C-28.99 312.67 -29.98 312.34 -31 312 C-35.04341214 308.30316604 -38.5544995 304.13049182 -42.1328125 299.98828125 C-44.03312323 297.81411592 -44.03312323 297.81411592 -47 296 C-47.33 295.01 -47.66 294.02 -48 293 C-48.474375 292.54625 -48.94875 292.0925 -49.4375 291.625 C-51.37092514 289.61423786 -52.0831564 287.60947795 -53 285 C-53.66 285 -54.32 285 -55 285 C-55 284.01 -55 283.02 -55 282 C-55.66 282 -56.32 282 -57 282 C-57 281.01 -57 280.02 -57 279 C-57.66 278.67 -58.32 278.34 -59 278 C-60.24310741 276.07648507 -61.42186304 274.11099421 -62.5625 272.125 C-63.18253906 271.05507812 -63.80257812 269.98515625 -64.44140625 268.8828125 C-67.13758311 263.89589891 -67.14126704 259.65412257 -67.12698364 254.11755371 C-67.12854363 253.19830785 -67.13010362 252.27906199 -67.13171089 251.3319602 C-67.13571281 248.23886882 -67.13253434 245.14582616 -67.12939453 242.05273438 C-67.13074893 239.84043855 -67.13252908 237.62814295 -67.13470459 235.41584778 C-67.13927433 229.39741529 -67.13749123 223.37899989 -67.1343255 217.36056709 C-67.13179955 211.07187986 -67.1341401 204.78319412 -67.13571167 198.49450684 C-67.13764942 187.25519348 -67.13453532 176.0158872 -67.12945233 164.77657551 C-67.12498446 154.58167798 -67.12576044 144.38679185 -67.13037109 134.19189453 C-67.13572009 122.35881813 -67.13771596 110.52574724 -67.13475883 98.69266939 C-67.13319714 92.42663582 -67.13299935 86.1606101 -67.13629532 79.89457703 C-67.13917687 74.00463261 -67.13719307 68.11470976 -67.13140106 62.22476768 C-67.130075 60.05874861 -67.130465 57.89272773 -67.13266373 55.72670937 C-67.1353812 52.77859688 -67.13198668 49.83055428 -67.12698364 46.88244629 C-67.13032973 45.58542856 -67.13032973 45.58542856 -67.13374341 44.26220846 C-67.12268701 40.92170563 -67.06382164 38.19146492 -66 35 C-65.34 35 -64.68 35 -64 35 C-64 34.01 -64 33.02 -64 32 C-63.34 32 -62.68 32 -62 32 C-61.566875 31.13375 -61.566875 31.13375 -61.125 30.25 C-60.75375 29.5075 -60.3825 28.765 -60 28 C-59.5359375 26.9790625 -59.5359375 26.9790625 -59.0625 25.9375 C-57.93791777 23.88679122 -56.67979206 22.60980072 -55 21 C-54.34 20.01 -53.68 19.02 -53 18 C-52.34 18 -51.68 18 -51 18 C-50.7525 17.443125 -50.505 16.88625 -50.25 16.3125 C-48.76129471 13.55839521 -47.11590028 11.30825486 -45 9 C-44.01 9 -43.02 9 -42 9 C-42 8.34 -42 7.68 -42 7 C-35.73049642 3.98049644 -29.82426256 1.41191639 -23 0 C-22.22269531 -0.17789063 -21.44539063 -0.35578125 -20.64453125 -0.5390625 C-13.94371281 -1.70700427 -6.63074259 -1.47349835 0 0 Z " transform="translate(67,910)" style="fill: #40C69B;"/><path d="M0 0 C0.36914349 2.1357975 0.36914349 2.1357975 0.36076355 4.83413696 C0.36488754 5.85499893 0.36901154 6.8758609 0.3732605 7.92765808 C0.36247467 9.05190689 0.35168884 10.1761557 0.34057617 11.33447266 C0.34123329 13.10518379 0.34123329 13.10518379 0.34190369 14.91166687 C0.34016871 18.15333493 0.32509794 21.39461714 0.30418181 24.63620806 C0.28545926 28.02213402 0.28366808 31.40806713 0.28010559 34.79403687 C0.27077206 41.2078754 0.24614075 47.62156098 0.21605712 54.03533208 C0.18255365 61.33630623 0.16603733 68.63728759 0.15097082 75.93831944 C0.11959222 90.95896493 0.06680648 105.97946719 0 121 C-4.25339929 121.15053394 -8.5069062 121.29737662 -12.76054382 121.440979 C-14.20391677 121.49020605 -15.64725724 121.54039595 -17.09056091 121.59161377 C-45.36251135 122.59252072 -71.31766357 119.37047115 -96 105 C-96.96550781 104.46632813 -97.93101563 103.93265625 -98.92578125 103.3828125 C-99.95251953 102.69832031 -99.95251953 102.69832031 -101 102 C-101 101.34 -101 100.68 -101 100 C-102.09634766 99.690625 -102.09634766 99.690625 -103.21484375 99.375 C-106.75375062 97.62788188 -108.45114549 95.20940545 -110.5625 92 C-111.14946655 91.12432373 -111.14946655 91.12432373 -111.74829102 90.23095703 C-119.72760944 78.00881359 -121.55504569 65.41268643 -121 51 C-120.98195313 50.25363281 -120.96390625 49.50726562 -120.9453125 48.73828125 C-120.18049279 36.92856517 -114.84955157 24.64287814 -110 14 C-109.54882812 13.00355469 -109.09765625 12.00710938 -108.6328125 10.98046875 C-103.55877741 0.29756784 -96.60749752 -9.81681574 -88 -18 C-87.34 -18 -86.68 -18 -86 -18 C-86 -18.66 -86 -19.32 -86 -20 C-57.6445078 -26.26356379 -23.61631922 -15.74421281 0 0 Z " transform="translate(1400,778)" style="fill: #40C69B;"/></svg>
